<?xml version="1.0" encoding="UTF-8"?>
<svg id="Layer_1" data-name="Layer 1" xmlns="http://www.w3.org/2000/svg" viewBox="0 0 869.89 665.29">
  <defs>
    <style>
      .cls-1 {
        stroke-width: 0px;
      }
    </style>
  </defs>
  <g>
    <path class="cls-1" d="M324.01,415.64c0-1.48.26-2.94.77-4.36.51-1.43,1.27-2.73,2.26-3.9.99-1.17,2.21-2.11,3.65-2.81,1.44-.7,3.07-1.04,4.9-1.04,2.17,0,4.03.5,5.58,1.49,1.55.99,2.7,2.26,3.46,3.82l-2.43,1.57c-.48-1.03-1.09-1.84-1.83-2.45-.74-.6-1.54-1.03-2.4-1.28-.86-.25-1.69-.38-2.52-.38-1.35,0-2.54.27-3.58.82-1.04.55-1.91,1.28-2.62,2.19-.71.91-1.24,1.93-1.59,3.06-.35,1.13-.53,2.26-.53,3.41,0,1.25.21,2.46.63,3.63.42,1.16,1.01,2.19,1.76,3.08s1.64,1.6,2.67,2.12c1.03.53,2.14.79,3.35.79.84,0,1.71-.15,2.6-.44.89-.3,1.72-.76,2.5-1.39.78-.63,1.39-1.44,1.85-2.45l2.57,1.4c-.5,1.21-1.28,2.24-2.33,3.08-1.05.84-2.22,1.48-3.51,1.92-1.29.43-2.56.65-3.82.65-1.67,0-3.19-.36-4.59-1.08-1.39-.72-2.6-1.68-3.61-2.88-1.02-1.2-1.8-2.54-2.36-4.04-.56-1.49-.84-3.01-.84-4.54Z"/>
    <path class="cls-1" d="M347.04,422.86c0-1.13.33-2.11.98-2.94.65-.83,1.55-1.47,2.69-1.92,1.14-.45,2.46-.68,3.97-.68.8,0,1.64.06,2.53.19.89.13,1.68.31,2.36.56v-1.29c0-1.35-.41-2.41-1.23-3.19s-1.99-1.17-3.49-1.17c-.98,0-1.92.18-2.82.53-.9.35-1.85.86-2.86,1.52l-1.1-2.12c1.16-.8,2.33-1.4,3.49-1.8,1.16-.4,2.37-.6,3.63-.6,2.28,0,4.08.63,5.41,1.88,1.32,1.26,1.98,3,1.98,5.24v7.5c0,.36.07.63.22.8.15.17.39.27.74.29v2.33c-.3.05-.55.08-.77.1-.22.02-.39.03-.53.03-.71,0-1.24-.19-1.59-.58-.35-.39-.55-.8-.6-1.23l-.07-1.13c-.78,1-1.79,1.78-3.05,2.33-1.26.55-2.5.82-3.73.82s-2.25-.24-3.18-.73c-.94-.49-1.67-1.15-2.19-1.97-.52-.83-.79-1.75-.79-2.77ZM358.68,424.12c.27-.32.49-.64.65-.97.16-.33.24-.6.24-.83v-2.2c-.71-.27-1.45-.48-2.23-.63-.78-.15-1.54-.22-2.29-.22-1.53,0-2.77.3-3.71.9-.95.6-1.42,1.42-1.42,2.46,0,.56.15,1.11.46,1.64.31.53.76.97,1.37,1.3.6.34,1.35.51,2.24.51.94,0,1.83-.19,2.67-.56s1.52-.84,2.02-1.41Z"/>
    <path class="cls-1" d="M382.91,428h-3.01v-9.91c0-1.88-.29-3.25-.87-4.12s-1.47-1.31-2.65-1.31c-.82,0-1.64.2-2.45.61-.81.41-1.53.95-2.16,1.64-.63.69-1.08,1.48-1.35,2.38v10.7h-3.01v-17.76h2.74v3.84c.48-.84,1.1-1.56,1.85-2.17.75-.61,1.61-1.09,2.57-1.43s1.96-.51,3.01-.51,1.89.19,2.58.56c.7.37,1.24.89,1.64,1.56.4.67.68,1.46.86,2.36.17.91.26,1.89.26,2.96v10.6Z"/>
    <path class="cls-1" d="M386.44,419.17c0-1.68.35-3.21,1.04-4.6.7-1.39,1.65-2.51,2.88-3.35s2.62-1.26,4.19-1.26c1.44,0,2.73.38,3.87,1.13,1.14.75,2.03,1.67,2.67,2.74v-10.82h3.01v21.56c0,.37.07.63.22.8.15.17.39.27.74.29v2.33c-.57.09-1.02.14-1.33.14-.59,0-1.11-.21-1.56-.62-.45-.41-.67-.87-.67-1.37v-1.51c-.71,1.14-1.65,2.04-2.84,2.7-1.19.66-2.42.99-3.7.99s-2.37-.24-3.41-.73c-1.04-.49-1.94-1.16-2.7-2.02-.77-.86-1.36-1.84-1.78-2.94-.42-1.1-.63-2.26-.63-3.48ZM401.09,421.77v-5.08c-.27-.77-.72-1.46-1.33-2.08-.62-.62-1.31-1.12-2.07-1.49-.77-.37-1.52-.56-2.28-.56-.89,0-1.69.19-2.41.56s-1.33.87-1.85,1.49c-.51.62-.91,1.33-1.18,2.12-.27.79-.41,1.62-.41,2.47s.15,1.72.46,2.51c.31.79.74,1.49,1.3,2.1.56.61,1.21,1.08,1.95,1.42.74.34,1.55.51,2.41.51.55,0,1.11-.1,1.69-.3.58-.2,1.13-.49,1.66-.85.52-.36.97-.79,1.33-1.27.36-.49.6-1,.72-1.54Z"/>
    <path class="cls-1" d="M409.13,406.78v-3.77h3.01v3.77h-3.01ZM409.13,428v-17.87h3.01v17.87h-3.01Z"/>
    <path class="cls-1" d="M415.84,419.17c0-1.68.35-3.21,1.04-4.6.7-1.39,1.65-2.51,2.88-3.35,1.22-.84,2.62-1.26,4.19-1.26,1.44,0,2.73.38,3.87,1.13,1.14.75,2.03,1.67,2.67,2.74v-10.82h3.01v21.56c0,.37.07.63.22.8.15.17.39.27.74.29v2.33c-.57.09-1.02.14-1.33.14-.59,0-1.11-.21-1.56-.62-.45-.41-.67-.87-.67-1.37v-1.51c-.71,1.14-1.65,2.04-2.84,2.7-1.19.66-2.42.99-3.7.99s-2.37-.24-3.41-.73c-1.04-.49-1.94-1.16-2.7-2.02-.77-.86-1.36-1.84-1.78-2.94-.42-1.1-.63-2.26-.63-3.48ZM430.49,421.77v-5.08c-.27-.77-.72-1.46-1.33-2.08-.62-.62-1.31-1.12-2.07-1.49-.77-.37-1.52-.56-2.28-.56-.89,0-1.69.19-2.41.56s-1.33.87-1.85,1.49c-.51.62-.91,1.33-1.18,2.12-.27.79-.41,1.62-.41,2.47s.15,1.72.46,2.51c.31.79.74,1.49,1.3,2.1.56.61,1.21,1.08,1.95,1.42.74.34,1.55.51,2.41.51.55,0,1.11-.1,1.69-.3.58-.2,1.13-.49,1.66-.85.52-.36.97-.79,1.33-1.27.36-.49.6-1,.72-1.54Z"/>
    <path class="cls-1" d="M437.13,422.86c0-1.13.33-2.11.98-2.94.65-.83,1.55-1.47,2.69-1.92,1.14-.45,2.46-.68,3.97-.68.8,0,1.64.06,2.53.19.89.13,1.68.31,2.36.56v-1.29c0-1.35-.41-2.41-1.23-3.19s-1.99-1.17-3.49-1.17c-.98,0-1.92.18-2.82.53-.9.35-1.85.86-2.86,1.52l-1.1-2.12c1.16-.8,2.33-1.4,3.49-1.8,1.16-.4,2.37-.6,3.63-.6,2.28,0,4.08.63,5.41,1.88,1.32,1.26,1.98,3,1.98,5.24v7.5c0,.36.07.63.22.8.15.17.39.27.74.29v2.33c-.3.05-.55.08-.77.1-.22.02-.39.03-.53.03-.71,0-1.24-.19-1.59-.58-.35-.39-.55-.8-.6-1.23l-.07-1.13c-.78,1-1.79,1.78-3.05,2.33-1.26.55-2.5.82-3.73.82s-2.25-.24-3.18-.73c-.94-.49-1.67-1.15-2.19-1.97-.52-.83-.79-1.75-.79-2.77ZM448.77,424.12c.27-.32.49-.64.65-.97.16-.33.24-.6.24-.83v-2.2c-.71-.27-1.45-.48-2.23-.63-.78-.15-1.54-.22-2.29-.22-1.53,0-2.77.3-3.71.9-.95.6-1.42,1.42-1.42,2.46,0,.56.15,1.11.46,1.64.31.53.76.97,1.37,1.3.6.34,1.35.51,2.24.51.94,0,1.83-.19,2.67-.56s1.52-.84,2.02-1.41Z"/>
    <path class="cls-1" d="M466.6,427.21c-.25.11-.59.26-1.03.44-.43.18-.94.34-1.51.48-.57.14-1.18.21-1.81.21-.73,0-1.4-.13-2.02-.39-.62-.26-1.11-.67-1.47-1.23-.37-.56-.55-1.26-.55-2.11v-12.01h-2.43v-2.36h2.43v-5.96h3.01v5.96h4v2.36h-4v11.09c.05.64.26,1.11.65,1.42.39.31.84.46,1.37.46.59,0,1.14-.1,1.64-.31s.83-.35.99-.45l.72,2.4Z"/>
    <path class="cls-1" d="M469.24,420.89v-10.65h3.01v10.06c0,1.81.32,3.17.96,4.08.64.91,1.59,1.36,2.84,1.36.82,0,1.61-.17,2.38-.53.76-.35,1.46-.85,2.07-1.51.62-.66,1.09-1.44,1.44-2.34v-11.13h3.01v14.35c0,.36.07.63.22.8s.39.27.74.29v2.33c-.34.05-.61.07-.8.09-.19.01-.38.02-.56.02-.57,0-1.06-.17-1.47-.53-.41-.35-.63-.79-.65-1.31l-.07-2.08c-.78,1.32-1.82,2.34-3.13,3.06-1.31.73-2.74,1.09-4.29,1.09-1.87,0-3.29-.63-4.25-1.89-.96-1.26-1.44-3.11-1.44-5.56Z"/>
    <path class="cls-1" d="M499.42,412.77c-1.51.02-2.83.41-3.99,1.15-1.15.74-1.97,1.76-2.45,3.06v11.02h-3.01v-17.76h2.81v4.04c.62-1.23,1.43-2.23,2.45-3,1.01-.76,2.08-1.19,3.2-1.28h.58c.16,0,.3.01.41.03v2.74Z"/>
    <path class="cls-1" d="M501,422.86c0-1.13.32-2.11.97-2.94.65-.83,1.55-1.47,2.69-1.92,1.14-.45,2.46-.68,3.97-.68.8,0,1.64.06,2.53.19.89.13,1.68.31,2.36.56v-1.29c0-1.35-.41-2.41-1.23-3.19s-1.99-1.17-3.49-1.17c-.98,0-1.92.18-2.82.53s-1.85.86-2.86,1.52l-1.1-2.12c1.16-.8,2.33-1.4,3.49-1.8s2.37-.6,3.63-.6c2.28,0,4.08.63,5.41,1.88,1.32,1.26,1.99,3,1.99,5.24v7.5c0,.36.07.63.22.8.15.17.39.27.74.29v2.33c-.3.05-.55.08-.77.1s-.39.03-.53.03c-.71,0-1.24-.19-1.59-.58-.35-.39-.55-.8-.6-1.23l-.07-1.13c-.78,1-1.79,1.78-3.05,2.33s-2.5.82-3.73.82-2.25-.24-3.18-.73c-.94-.49-1.67-1.15-2.19-1.97-.53-.83-.79-1.75-.79-2.77ZM512.64,424.12c.27-.32.49-.64.65-.97.16-.33.24-.6.24-.83v-2.2c-.71-.27-1.45-.48-2.22-.63-.78-.15-1.54-.22-2.29-.22-1.53,0-2.77.3-3.71.9s-1.42,1.42-1.42,2.46c0,.56.15,1.11.46,1.64.31.53.76.97,1.37,1.3.6.34,1.35.51,2.24.51.94,0,1.83-.19,2.67-.56.84-.37,1.52-.84,2.02-1.41Z"/>
    <path class="cls-1" d="M528.86,419.17c0-1.68.35-3.21,1.04-4.6.7-1.39,1.65-2.51,2.88-3.35s2.62-1.26,4.19-1.26c1.44,0,2.73.38,3.87,1.13,1.14.75,2.03,1.67,2.67,2.74v-10.82h3.01v21.56c0,.37.07.63.22.8.15.17.39.27.74.29v2.33c-.57.09-1.02.14-1.33.14-.59,0-1.11-.21-1.56-.62-.44-.41-.67-.87-.67-1.37v-1.51c-.71,1.14-1.66,2.04-2.84,2.7-1.19.66-2.42.99-3.7.99s-2.37-.24-3.41-.73c-1.04-.49-1.94-1.16-2.7-2.02-.76-.86-1.36-1.84-1.78-2.94s-.63-2.26-.63-3.48ZM543.51,421.77v-5.08c-.27-.77-.72-1.46-1.33-2.08s-1.31-1.12-2.07-1.49c-.76-.37-1.52-.56-2.28-.56-.89,0-1.69.19-2.41.56s-1.33.87-1.85,1.49-.91,1.33-1.18,2.12c-.27.79-.41,1.62-.41,2.47s.15,1.72.46,2.51c.31.79.74,1.49,1.3,2.1.56.61,1.21,1.08,1.95,1.42.74.34,1.55.51,2.41.51.55,0,1.11-.1,1.69-.3.58-.2,1.13-.49,1.66-.85.53-.36.97-.79,1.33-1.27.37-.49.6-1,.72-1.54Z"/>
    <path class="cls-1" d="M559.36,428.34c-1.35,0-2.57-.24-3.66-.73-1.1-.49-2.04-1.16-2.84-2-.8-.85-1.42-1.83-1.85-2.94-.43-1.11-.65-2.28-.65-3.5s.22-2.42.65-3.53c.43-1.11,1.05-2.09,1.85-2.94.8-.85,1.75-1.52,2.86-2,1.11-.49,2.32-.73,3.65-.73s2.57.24,3.66.73c1.1.49,2.05,1.16,2.86,2,.81.85,1.43,1.83,1.87,2.94s.65,2.29.65,3.53-.22,2.39-.65,3.5c-.43,1.11-1.05,2.09-1.85,2.94-.8.85-1.75,1.52-2.86,2-1.11.49-2.33.73-3.68.73ZM553.44,419.2c0,1.22.27,2.33.8,3.32.54.99,1.25,1.78,2.14,2.35.89.58,1.88.86,2.98.86s2.09-.29,3-.88c.9-.59,1.62-1.38,2.16-2.39s.8-2.12.8-3.34-.27-2.33-.8-3.32c-.54-.99-1.25-1.78-2.16-2.37-.9-.59-1.9-.88-3-.88s-2.09.3-2.98.9c-.89.6-1.6,1.39-2.14,2.39-.54.99-.8,2.11-.8,3.35Z"/>
    <path class="cls-1" d="M324.01,456.71c0-1.48.26-2.94.77-4.36.51-1.43,1.27-2.73,2.26-3.9.99-1.17,2.21-2.11,3.65-2.81,1.44-.7,3.07-1.04,4.9-1.04,2.17,0,4.03.5,5.58,1.49,1.55.99,2.7,2.26,3.46,3.82l-2.43,1.57c-.48-1.03-1.09-1.84-1.83-2.45-.74-.6-1.54-1.03-2.4-1.28-.86-.25-1.69-.38-2.52-.38-1.35,0-2.54.27-3.58.82-1.04.55-1.91,1.28-2.62,2.19-.71.91-1.24,1.93-1.59,3.06-.35,1.13-.53,2.26-.53,3.41,0,1.25.21,2.46.63,3.63.42,1.16,1.01,2.19,1.76,3.08s1.64,1.6,2.67,2.12c1.03.53,2.14.79,3.35.79.84,0,1.71-.15,2.6-.44.89-.3,1.72-.76,2.5-1.39.78-.63,1.39-1.44,1.85-2.45l2.57,1.4c-.5,1.21-1.28,2.24-2.33,3.08-1.05.84-2.22,1.48-3.51,1.92-1.29.43-2.56.65-3.82.65-1.67,0-3.19-.36-4.59-1.08-1.39-.72-2.6-1.68-3.61-2.88-1.02-1.2-1.8-2.54-2.36-4.04-.56-1.49-.84-3.01-.84-4.54Z"/>
    <path class="cls-1" d="M356.25,469.41c-1.35,0-2.57-.24-3.66-.73-1.1-.49-2.04-1.16-2.84-2-.8-.85-1.42-1.83-1.85-2.94-.43-1.11-.65-2.28-.65-3.5s.22-2.42.65-3.53c.43-1.11,1.05-2.09,1.85-2.94.8-.85,1.75-1.52,2.86-2,1.11-.49,2.32-.73,3.65-.73s2.57.24,3.66.73c1.1.49,2.05,1.16,2.86,2,.81.85,1.43,1.83,1.87,2.94s.65,2.29.65,3.53-.22,2.39-.65,3.5c-.43,1.11-1.05,2.09-1.85,2.94-.8.85-1.75,1.52-2.86,2-1.11.49-2.33.73-3.68.73ZM350.33,460.27c0,1.22.27,2.33.8,3.32.54.99,1.25,1.78,2.14,2.35.89.58,1.88.86,2.98.86s2.09-.29,3-.88c.9-.59,1.62-1.38,2.16-2.39.54-1,.8-2.12.8-3.34s-.27-2.33-.8-3.32c-.54-.99-1.26-1.78-2.16-2.37-.9-.59-1.9-.88-3-.88s-2.09.3-2.98.9c-.89.6-1.6,1.39-2.14,2.39-.54.99-.8,2.11-.8,3.35Z"/>
    <path class="cls-1" d="M384.45,469.07h-3.01v-9.91c0-1.88-.29-3.25-.87-4.12s-1.47-1.31-2.65-1.31c-.82,0-1.64.2-2.45.61-.81.41-1.53.95-2.16,1.64-.63.69-1.08,1.48-1.35,2.38v10.7h-3.01v-17.76h2.74v3.84c.48-.84,1.1-1.56,1.85-2.17.75-.61,1.61-1.09,2.57-1.43s1.96-.51,3.01-.51,1.89.19,2.58.56c.7.37,1.24.89,1.64,1.56.4.67.68,1.46.86,2.36.17.91.26,1.89.26,2.96v10.6Z"/>
    <path class="cls-1" d="M386.85,475.44c-.78,0-1.52-.11-2.22-.34-.71-.23-1.33-.59-1.88-1.1l1.4-2.02c.32.3.69.5,1.11.62.42.11.84.17,1.25.17.5,0,.97-.12,1.4-.37.43-.25.79-.6,1.06-1.04.27-.44.41-.94.41-1.48v-18.57h3.01v18.37c0,1.11-.26,2.11-.79,2.98s-1.2,1.56-2.04,2.04c-.83.49-1.74.73-2.72.73ZM389.38,447.95v-3.76h3.01v3.76h-3.01Z"/>
    <path class="cls-1" d="M397.08,461.96v-10.65h3.01v10.06c0,1.81.32,3.17.96,4.08.64.91,1.59,1.36,2.84,1.36.82,0,1.61-.17,2.38-.53.76-.35,1.46-.85,2.07-1.51.62-.66,1.1-1.44,1.44-2.34v-11.13h3.01v14.35c0,.36.07.63.22.8s.39.27.74.29v2.33c-.34.05-.61.07-.8.09-.19.01-.38.02-.56.02-.57,0-1.06-.17-1.47-.53-.41-.35-.63-.79-.65-1.31l-.07-2.08c-.78,1.32-1.82,2.34-3.13,3.06-1.31.73-2.74,1.09-4.3,1.09-1.87,0-3.29-.63-4.24-1.89-.96-1.26-1.44-3.11-1.44-5.56Z"/>
    <path class="cls-1" d="M433.33,469.07h-3.01v-9.91c0-1.88-.29-3.25-.87-4.12s-1.47-1.31-2.65-1.31c-.82,0-1.64.2-2.45.61-.81.41-1.53.95-2.16,1.64-.63.69-1.08,1.48-1.35,2.38v10.7h-3.01v-17.76h2.74v3.84c.48-.84,1.1-1.56,1.85-2.17.75-.61,1.61-1.09,2.57-1.43s1.96-.51,3.01-.51,1.89.19,2.58.56c.7.37,1.24.89,1.64,1.56.4.67.68,1.46.86,2.36.17.91.26,1.89.26,2.96v10.6Z"/>
    <path class="cls-1" d="M447.09,468.28c-.25.11-.59.26-1.03.44-.43.18-.94.34-1.51.48-.57.14-1.18.21-1.81.21-.73,0-1.4-.13-2.02-.39-.62-.26-1.11-.67-1.47-1.23-.37-.56-.55-1.26-.55-2.11v-12.01h-2.43v-2.36h2.43v-5.96h3.01v5.96h4v2.36h-4v11.09c.05.64.26,1.11.65,1.42.39.31.84.46,1.37.46.59,0,1.14-.1,1.64-.31s.83-.35.99-.45l.72,2.4Z"/>
    <path class="cls-1" d="M457.46,469.41c-1.35,0-2.57-.24-3.66-.73-1.1-.49-2.04-1.16-2.84-2-.8-.85-1.42-1.83-1.85-2.94-.43-1.11-.65-2.28-.65-3.5s.22-2.42.65-3.53c.43-1.11,1.05-2.09,1.85-2.94.8-.85,1.75-1.52,2.86-2,1.11-.49,2.32-.73,3.65-.73s2.57.24,3.66.73c1.1.49,2.05,1.16,2.86,2,.81.85,1.43,1.83,1.87,2.94s.65,2.29.65,3.53-.22,2.39-.65,3.5c-.43,1.11-1.05,2.09-1.85,2.94-.8.85-1.75,1.52-2.86,2-1.11.49-2.33.73-3.68.73ZM451.54,460.27c0,1.22.27,2.33.8,3.32.54.99,1.25,1.78,2.14,2.35.89.58,1.88.86,2.98.86s2.09-.29,3-.88c.9-.59,1.62-1.38,2.16-2.39.54-1,.8-2.12.8-3.34s-.27-2.33-.8-3.32c-.54-.99-1.26-1.78-2.16-2.37-.9-.59-1.9-.88-3-.88s-2.09.3-2.98.9c-.89.6-1.6,1.39-2.14,2.39-.54.99-.8,2.11-.8,3.35Z"/>
    <path class="cls-1" d="M479.3,469.07v-24.3h10.13c1.07,0,2.05.22,2.94.67.89.45,1.67,1.04,2.33,1.78.66.74,1.17,1.57,1.54,2.5.37.92.55,1.87.55,2.82,0,1.32-.3,2.58-.89,3.78-.59,1.2-1.43,2.17-2.5,2.91-1.07.74-2.33,1.11-3.77,1.11h-7.26v8.73h-3.08ZM482.38,457.6h7.08c.84,0,1.58-.23,2.21-.68.63-.46,1.12-1.07,1.47-1.85.35-.78.53-1.62.53-2.53,0-.96-.21-1.82-.62-2.58-.41-.76-.95-1.36-1.61-1.8-.66-.43-1.39-.65-2.19-.65h-6.88v10.1Z"/>
    <path class="cls-1" d="M498.54,463.94c0-1.13.32-2.11.97-2.94.65-.83,1.55-1.47,2.69-1.92,1.14-.45,2.46-.68,3.97-.68.8,0,1.64.06,2.53.19.89.13,1.68.31,2.36.56v-1.29c0-1.35-.41-2.41-1.23-3.19s-1.99-1.17-3.49-1.17c-.98,0-1.92.18-2.82.53s-1.85.86-2.86,1.52l-1.1-2.12c1.16-.8,2.33-1.4,3.49-1.8s2.37-.6,3.63-.6c2.28,0,4.08.63,5.41,1.88,1.32,1.26,1.99,3,1.99,5.24v7.5c0,.36.07.63.22.8.15.17.39.27.74.29v2.33c-.3.05-.55.08-.77.1s-.39.03-.53.03c-.71,0-1.24-.19-1.59-.58-.35-.39-.55-.8-.6-1.23l-.07-1.13c-.78,1-1.79,1.78-3.05,2.33s-2.5.82-3.73.82-2.25-.24-3.18-.73c-.94-.49-1.67-1.15-2.19-1.97-.53-.83-.79-1.75-.79-2.77ZM510.17,465.19c.27-.32.49-.64.65-.97.16-.33.24-.6.24-.83v-2.2c-.71-.27-1.45-.48-2.22-.63-.78-.15-1.54-.22-2.29-.22-1.53,0-2.77.3-3.71.9s-1.42,1.42-1.42,2.46c0,.56.15,1.11.46,1.64.31.53.76.97,1.37,1.3.6.34,1.35.51,2.24.51.94,0,1.83-.19,2.67-.56.84-.37,1.52-.84,2.02-1.41Z"/>
    <path class="cls-1" d="M528.01,468.28c-.25.11-.59.26-1.03.44-.43.18-.94.34-1.51.48s-1.17.21-1.81.21c-.73,0-1.4-.13-2.02-.39-.62-.26-1.11-.67-1.47-1.23-.37-.56-.55-1.26-.55-2.11v-12.01h-2.43v-2.36h2.43v-5.96h3.01v5.96h4v2.36h-4v11.09c.05.64.26,1.11.65,1.42.39.31.84.46,1.37.46.59,0,1.14-.1,1.64-.31.5-.21.83-.35.99-.45l.72,2.4Z"/>
    <path class="cls-1" d="M540.26,453.84c-1.51.02-2.83.41-3.99,1.15-1.15.74-1.97,1.76-2.45,3.06v11.02h-3.01v-17.76h2.81v4.04c.62-1.23,1.43-2.23,2.45-3,1.01-.76,2.08-1.19,3.2-1.28h.58c.16,0,.3.01.41.03v2.74Z"/>
    <path class="cls-1" d="M543.24,447.85v-3.77h3.01v3.77h-3.01ZM543.24,469.07v-17.87h3.01v17.87h-3.01Z"/>
    <path class="cls-1" d="M578.05,469.07h-3.01v-9.91c0-1.85-.3-3.22-.91-4.11-.61-.88-1.5-1.32-2.69-1.32s-2.3.43-3.29,1.31c-.98.87-1.68,2-2.09,3.38v10.65h-3.01v-9.91c0-1.88-.3-3.25-.89-4.12-.59-.87-1.48-1.31-2.67-1.31s-2.28.42-3.27,1.27c-.99.84-1.69,1.97-2.11,3.36v10.7h-3.01v-17.76h2.74v3.84c.73-1.31,1.68-2.33,2.84-3.04,1.16-.71,2.48-1.07,3.94-1.07s2.67.4,3.56,1.21c.89.8,1.44,1.84,1.64,3.11.8-1.4,1.77-2.47,2.91-3.21,1.14-.74,2.44-1.1,3.9-1.1,1.03,0,1.89.19,2.58.56.7.37,1.25.89,1.66,1.56.41.67.71,1.46.89,2.36.18.91.27,1.89.27,2.96v10.6Z"/>
    <path class="cls-1" d="M590.54,469.41c-1.35,0-2.57-.24-3.66-.73-1.1-.49-2.04-1.16-2.84-2-.8-.85-1.42-1.83-1.85-2.94-.43-1.11-.65-2.28-.65-3.5s.22-2.42.65-3.53c.43-1.11,1.05-2.09,1.85-2.94.8-.85,1.75-1.52,2.86-2,1.11-.49,2.32-.73,3.65-.73s2.57.24,3.66.73c1.1.49,2.05,1.16,2.86,2,.81.85,1.43,1.83,1.87,2.94s.65,2.29.65,3.53-.22,2.39-.65,3.5c-.43,1.11-1.05,2.09-1.85,2.94-.8.85-1.75,1.52-2.86,2-1.11.49-2.33.73-3.68.73ZM584.62,460.27c0,1.22.27,2.33.8,3.32.54.99,1.25,1.78,2.14,2.35.89.58,1.88.86,2.98.86s2.09-.29,3-.88c.9-.59,1.62-1.38,2.16-2.39s.8-2.12.8-3.34-.27-2.33-.8-3.32c-.54-.99-1.25-1.78-2.16-2.37-.9-.59-1.9-.88-3-.88s-2.09.3-2.98.9c-.89.6-1.6,1.39-2.14,2.39-.54.99-.8,2.11-.8,3.35Z"/>
    <path class="cls-1" d="M618.74,469.07h-3.01v-9.91c0-1.88-.29-3.25-.87-4.12s-1.47-1.31-2.65-1.31c-.82,0-1.64.2-2.45.61-.81.41-1.53.95-2.16,1.64s-1.08,1.48-1.35,2.38v10.7h-3.01v-17.76h2.74v3.84c.48-.84,1.09-1.56,1.85-2.17s1.61-1.09,2.57-1.43,1.96-.51,3.01-.51,1.89.19,2.58.56c.7.37,1.24.89,1.64,1.56s.68,1.46.86,2.36c.17.91.26,1.89.26,2.96v10.6Z"/>
    <path class="cls-1" d="M623.43,447.85v-3.77h3.01v3.77h-3.01ZM623.43,469.07v-17.87h3.01v17.87h-3.01Z"/>
    <path class="cls-1" d="M629.9,463.94c0-1.13.32-2.11.97-2.94.65-.83,1.55-1.47,2.69-1.92,1.14-.45,2.46-.68,3.97-.68.8,0,1.64.06,2.53.19.89.13,1.68.31,2.36.56v-1.29c0-1.35-.41-2.41-1.23-3.19s-1.99-1.17-3.49-1.17c-.98,0-1.92.18-2.82.53s-1.85.86-2.86,1.52l-1.1-2.12c1.16-.8,2.33-1.4,3.49-1.8s2.37-.6,3.63-.6c2.28,0,4.08.63,5.41,1.88,1.32,1.26,1.99,3,1.99,5.24v7.5c0,.36.07.63.22.8.15.17.39.27.74.29v2.33c-.3.05-.55.08-.77.1s-.39.03-.53.03c-.71,0-1.24-.19-1.59-.58-.35-.39-.55-.8-.6-1.23l-.07-1.13c-.78,1-1.79,1.78-3.05,2.33s-2.5.82-3.73.82-2.25-.24-3.18-.73c-.94-.49-1.67-1.15-2.19-1.97-.53-.83-.79-1.75-.79-2.77ZM641.54,465.19c.27-.32.49-.64.65-.97.16-.33.24-.6.24-.83v-2.2c-.71-.27-1.45-.48-2.22-.63-.78-.15-1.54-.22-2.29-.22-1.53,0-2.77.3-3.71.9s-1.42,1.42-1.42,2.46c0,.56.15,1.11.46,1.64.31.53.76.97,1.37,1.3.6.34,1.35.51,2.24.51.94,0,1.83-.19,2.67-.56.84-.37,1.52-.84,2.02-1.41Z"/>
    <path class="cls-1" d="M650.34,444.08h3.01v20.46c0,.99.14,1.59.41,1.82.27.23.6.34.99.34.48,0,.94-.05,1.37-.15s.8-.21,1.1-.33l.48,2.46c-.5.21-1.09.38-1.78.51s-1.29.21-1.81.21c-1.16,0-2.08-.33-2.75-1-.67-.66-1.01-1.59-1.01-2.78v-21.55Z"/>
    <path class="cls-1" d="M668.17,469.07v-24.3h10.41c1.07,0,2.05.22,2.94.67.89.45,1.67,1.04,2.33,1.78s1.17,1.57,1.54,2.5c.37.92.55,1.87.55,2.82,0,1.12-.21,2.18-.63,3.18-.42,1-1.02,1.86-1.78,2.57-.76.71-1.66,1.2-2.69,1.47l5.89,9.31h-3.49l-5.54-8.73h-6.43v8.73h-3.08ZM671.25,457.6h7.36c.84,0,1.58-.23,2.21-.7s1.12-1.09,1.47-1.87c.35-.78.53-1.61.53-2.5s-.21-1.75-.62-2.52c-.41-.76-.95-1.38-1.61-1.83-.66-.46-1.39-.68-2.19-.68h-7.15v10.1Z"/>
    <path class="cls-1" d="M697.4,469.41c-1.35,0-2.57-.24-3.66-.73-1.1-.49-2.04-1.16-2.84-2-.8-.85-1.42-1.83-1.85-2.94-.43-1.11-.65-2.28-.65-3.5s.22-2.42.65-3.53c.43-1.11,1.05-2.09,1.85-2.94.8-.85,1.75-1.52,2.86-2,1.11-.49,2.32-.73,3.65-.73s2.57.24,3.66.73c1.1.49,2.05,1.16,2.86,2,.81.85,1.43,1.83,1.87,2.94s.65,2.29.65,3.53-.22,2.39-.65,3.5c-.43,1.11-1.05,2.09-1.85,2.94-.8.85-1.75,1.52-2.86,2-1.11.49-2.33.73-3.68.73ZM691.48,460.27c0,1.22.27,2.33.8,3.32.54.99,1.25,1.78,2.14,2.35.89.58,1.88.86,2.98.86s2.09-.29,3-.88c.9-.59,1.62-1.38,2.16-2.39s.8-2.12.8-3.34-.27-2.33-.8-3.32c-.54-.99-1.25-1.78-2.16-2.37-.9-.59-1.9-.88-3-.88s-2.09.3-2.98.9c-.89.6-1.6,1.39-2.14,2.39-.54.99-.8,2.11-.8,3.35Z"/>
    <path class="cls-1" d="M737.04,469.07h-3.01v-9.91c0-1.85-.3-3.22-.91-4.11-.61-.88-1.5-1.32-2.69-1.32s-2.3.43-3.29,1.31c-.98.87-1.68,2-2.09,3.38v10.65h-3.01v-9.91c0-1.88-.3-3.25-.89-4.12-.59-.87-1.48-1.31-2.67-1.31s-2.28.42-3.27,1.27c-.99.84-1.69,1.97-2.11,3.36v10.7h-3.01v-17.76h2.74v3.84c.73-1.31,1.68-2.33,2.84-3.04,1.16-.71,2.48-1.07,3.94-1.07s2.67.4,3.56,1.21c.89.8,1.44,1.84,1.64,3.11.8-1.4,1.77-2.47,2.91-3.21,1.14-.74,2.44-1.1,3.9-1.1,1.03,0,1.89.19,2.58.56.7.37,1.25.89,1.66,1.56.41.67.71,1.46.89,2.36.18.91.27,1.89.27,2.96v10.6Z"/>
    <path class="cls-1" d="M740.32,463.94c0-1.13.32-2.11.97-2.94.65-.83,1.55-1.47,2.69-1.92,1.14-.45,2.46-.68,3.97-.68.8,0,1.64.06,2.53.19.89.13,1.68.31,2.36.56v-1.29c0-1.35-.41-2.41-1.23-3.19s-1.99-1.17-3.49-1.17c-.98,0-1.92.18-2.82.53s-1.85.86-2.86,1.52l-1.1-2.12c1.16-.8,2.33-1.4,3.49-1.8s2.37-.6,3.63-.6c2.28,0,4.08.63,5.41,1.88,1.32,1.26,1.99,3,1.99,5.24v7.5c0,.36.07.63.22.8.15.17.39.27.74.29v2.33c-.3.05-.55.08-.77.1s-.39.03-.53.03c-.71,0-1.24-.19-1.59-.58-.35-.39-.55-.8-.6-1.23l-.07-1.13c-.78,1-1.79,1.78-3.05,2.33s-2.5.82-3.73.82-2.25-.24-3.18-.73c-.94-.49-1.67-1.15-2.19-1.97-.53-.83-.79-1.75-.79-2.77ZM751.96,465.19c.27-.32.49-.64.65-.97.16-.33.24-.6.24-.83v-2.2c-.71-.27-1.45-.48-2.22-.63-.78-.15-1.54-.22-2.29-.22-1.53,0-2.77.3-3.71.9s-1.42,1.42-1.42,2.46c0,.56.15,1.11.46,1.64.31.53.76.97,1.37,1.3.6.34,1.35.51,2.24.51.94,0,1.83-.19,2.67-.56.84-.37,1.52-.84,2.02-1.41Z"/>
    <path class="cls-1" d="M776.19,469.07h-3.01v-9.91c0-1.88-.29-3.25-.87-4.12s-1.47-1.31-2.65-1.31c-.82,0-1.64.2-2.45.61-.81.41-1.53.95-2.16,1.64s-1.08,1.48-1.35,2.38v10.7h-3.01v-17.76h2.74v3.84c.48-.84,1.09-1.56,1.85-2.17s1.61-1.09,2.57-1.43,1.96-.51,3.01-.51,1.89.19,2.58.56c.7.37,1.24.89,1.64,1.56s.68,1.46.86,2.36c.17.91.26,1.89.26,2.96v10.6Z"/>
    <path class="cls-1" d="M788.69,469.41c-1.35,0-2.57-.24-3.66-.73-1.1-.49-2.04-1.16-2.84-2-.8-.85-1.42-1.83-1.85-2.94-.43-1.11-.65-2.28-.65-3.5s.22-2.42.65-3.53c.43-1.11,1.05-2.09,1.85-2.94.8-.85,1.75-1.52,2.86-2,1.11-.49,2.32-.73,3.65-.73s2.57.24,3.66.73c1.1.49,2.05,1.16,2.86,2,.81.85,1.43,1.83,1.87,2.94s.65,2.29.65,3.53-.22,2.39-.65,3.5c-.43,1.11-1.05,2.09-1.85,2.94-.8.85-1.75,1.52-2.86,2-1.11.49-2.33.73-3.68.73ZM782.76,460.27c0,1.22.27,2.33.8,3.32.54.99,1.25,1.78,2.14,2.35.89.58,1.88.86,2.98.86s2.09-.29,3-.88c.9-.59,1.62-1.38,2.16-2.39s.8-2.12.8-3.34-.27-2.33-.8-3.32c-.54-.99-1.25-1.78-2.16-2.37-.9-.59-1.9-.88-3-.88s-2.09.3-2.98.9c-.89.6-1.6,1.39-2.14,2.39-.54.99-.8,2.11-.8,3.35Z"/>
    <path class="cls-1" d="M333.01,510.49c-1.35,0-2.57-.24-3.68-.73-1.11-.49-2.07-1.16-2.88-2-.81-.85-1.44-1.83-1.88-2.94-.45-1.11-.67-2.29-.67-3.53,0-1.68.39-3.21,1.16-4.59.78-1.38,1.85-2.49,3.23-3.33,1.38-.84,2.96-1.26,4.74-1.26s3.37.42,4.71,1.27c1.33.85,2.37,1.96,3.11,3.33.74,1.37,1.11,2.85,1.11,4.44,0,.23,0,.45-.02.66-.01.21-.03.38-.05.49h-14.82c.09,1.15.42,2.17.98,3.06.56.89,1.28,1.59,2.17,2.1.89.51,1.85.76,2.88.76,1.1,0,2.13-.27,3.1-.82.97-.55,1.64-1.27,2-2.16l2.6.72c-.39.87-.96,1.64-1.73,2.33-.76.68-1.67,1.22-2.7,1.61-1.04.39-2.16.58-3.37.58ZM326.98,500.22h12.19c-.09-1.15-.42-2.16-.99-3.04s-1.3-1.57-2.19-2.06c-.89-.5-1.87-.74-2.94-.74s-2.02.25-2.91.74c-.89.5-1.61,1.18-2.17,2.06s-.88,1.89-.98,3.04Z"/>
    <path class="cls-1" d="M372.27,510.15h-3.01v-9.91c0-1.85-.3-3.22-.91-4.11-.6-.88-1.5-1.32-2.69-1.32s-2.31.43-3.29,1.31c-.98.87-1.68,2-2.09,3.38v10.65h-3.01v-9.91c0-1.88-.3-3.25-.89-4.12s-1.48-1.31-2.67-1.31-2.28.42-3.27,1.27c-.99.84-1.69,1.97-2.1,3.36v10.7h-3.01v-17.76h2.74v3.84c.73-1.31,1.68-2.33,2.84-3.04,1.16-.71,2.48-1.07,3.94-1.07s2.67.4,3.56,1.21c.89.8,1.44,1.84,1.64,3.11.8-1.4,1.77-2.47,2.91-3.21,1.14-.74,2.44-1.1,3.9-1.1,1.03,0,1.89.19,2.58.56.7.37,1.25.89,1.66,1.56.41.67.71,1.46.89,2.36.18.91.27,1.89.27,2.96v10.6Z"/>
    <path class="cls-1" d="M392.43,485.84h2.6l9.93,24.3h-3.29l-2.73-7.12h-10.45l-2.74,7.12h-3.29l9.96-24.3ZM398.03,500.63l-4.3-11.23-4.32,11.23h8.62Z"/>
    <path class="cls-1" d="M414.06,510.49c-1.19,0-2.27-.25-3.25-.75-.98-.5-1.83-1.17-2.53-2.02-.71-.85-1.25-1.83-1.64-2.94s-.58-2.28-.58-3.5.22-2.42.65-3.53c.43-1.11,1.03-2.08,1.8-2.92.76-.84,1.66-1.5,2.69-1.99s2.13-.73,3.32-.73c1.39,0,2.66.34,3.8,1.04,1.14.69,2.04,1.57,2.7,2.63v-3.4h2.67v25.06h-3.01v-10.79c-1.64,2.56-3.85,3.84-6.61,3.84ZM415.09,507.89c.84,0,1.61-.17,2.31-.51.7-.34,1.32-.79,1.87-1.37.55-.58,1.02-1.21,1.4-1.91v-5.1c-.09-.59-.32-1.13-.68-1.64-.37-.51-.81-.96-1.33-1.37-.53-.41-1.09-.72-1.69-.95-.6-.23-1.2-.34-1.8-.34-.89,0-1.7.19-2.43.56-.73.37-1.36.88-1.9,1.51-.54.63-.95,1.34-1.25,2.13-.3.79-.44,1.6-.44,2.44,0,1.17.26,2.26.77,3.25.51.99,1.22,1.79,2.1,2.39.89.6,1.92.9,3.08.9Z"/>
    <path class="cls-1" d="M428.37,503.03v-10.65h3.01v10.06c0,1.81.32,3.17.96,4.08.64.91,1.59,1.36,2.84,1.36.82,0,1.61-.17,2.38-.53.76-.35,1.46-.85,2.07-1.51.62-.66,1.1-1.44,1.44-2.34v-11.13h3.01v14.35c0,.36.07.63.22.8s.39.27.74.29v2.33c-.34.05-.61.07-.8.09-.19.01-.38.02-.56.02-.57,0-1.06-.17-1.47-.53-.41-.35-.63-.79-.65-1.31l-.07-2.08c-.78,1.32-1.82,2.34-3.13,3.06-1.31.73-2.74,1.09-4.3,1.09-1.87,0-3.29-.63-4.24-1.89-.96-1.26-1.44-3.11-1.44-5.56Z"/>
    <path class="cls-1" d="M447.71,505.01c0-1.13.33-2.11.98-2.94.65-.83,1.55-1.47,2.69-1.92,1.14-.45,2.46-.68,3.97-.68.8,0,1.64.06,2.53.19.89.13,1.68.31,2.36.56v-1.29c0-1.35-.41-2.41-1.23-3.19s-1.99-1.17-3.49-1.17c-.98,0-1.92.18-2.82.53-.9.35-1.85.86-2.86,1.52l-1.1-2.12c1.16-.8,2.33-1.4,3.49-1.8,1.16-.4,2.37-.6,3.63-.6,2.28,0,4.08.63,5.41,1.88,1.32,1.26,1.98,3,1.98,5.24v7.5c0,.36.07.63.22.8.15.17.39.27.74.29v2.33c-.3.05-.55.08-.77.1-.22.02-.39.03-.53.03-.71,0-1.24-.19-1.59-.58-.35-.39-.55-.8-.6-1.23l-.07-1.13c-.78,1-1.79,1.78-3.05,2.33-1.26.55-2.5.82-3.73.82s-2.25-.24-3.18-.73c-.94-.49-1.67-1.15-2.19-1.97-.52-.83-.79-1.75-.79-2.77ZM459.34,506.26c.27-.32.49-.64.65-.97.16-.33.24-.6.24-.83v-2.2c-.71-.27-1.45-.48-2.23-.63-.78-.15-1.54-.22-2.29-.22-1.53,0-2.77.3-3.71.9-.95.6-1.42,1.42-1.42,2.46,0,.56.15,1.11.46,1.64.31.53.76.97,1.37,1.3.6.34,1.35.51,2.24.51.94,0,1.83-.19,2.67-.56s1.52-.84,2.02-1.41Z"/>
    <path class="cls-1" d="M475.98,510.49c-1.35,0-2.57-.24-3.68-.73-1.11-.49-2.07-1.16-2.88-2-.81-.85-1.44-1.83-1.88-2.94-.45-1.11-.67-2.29-.67-3.53,0-1.68.39-3.21,1.16-4.59.78-1.38,1.85-2.49,3.23-3.33,1.38-.84,2.96-1.26,4.74-1.26s3.37.42,4.71,1.27c1.33.85,2.37,1.96,3.11,3.33.74,1.37,1.11,2.85,1.11,4.44,0,.23,0,.45-.02.66-.01.21-.03.38-.05.49h-14.82c.09,1.15.42,2.17.98,3.06.56.89,1.28,1.59,2.17,2.1s1.85.76,2.88.76c1.1,0,2.13-.27,3.1-.82s1.64-1.27,2-2.16l2.6.72c-.39.87-.96,1.64-1.73,2.33s-1.67,1.22-2.7,1.61c-1.04.39-2.16.58-3.37.58ZM469.95,500.22h12.19c-.09-1.15-.42-2.16-.99-3.04-.57-.88-1.3-1.57-2.19-2.06-.89-.5-1.87-.74-2.94-.74s-2.02.25-2.91.74c-.89.5-1.61,1.18-2.17,2.06s-.88,1.89-.98,3.04Z"/>
    <path class="cls-1" d="M497.44,510.15v-24.3h16.05v2.74h-12.97v8.11h10.92v2.57h-10.92v10.88h-3.08Z"/>
    <path class="cls-1" d="M516.98,485.16h3.01v20.46c0,.99.14,1.59.41,1.82.27.23.6.34.99.34.48,0,.94-.05,1.37-.15s.8-.21,1.1-.33l.48,2.46c-.5.21-1.09.38-1.78.51s-1.29.21-1.81.21c-1.16,0-2.08-.33-2.75-1-.67-.66-1.01-1.59-1.01-2.78v-21.55Z"/>
    <path class="cls-1" d="M525.3,505.01c0-1.13.32-2.11.97-2.94.65-.83,1.55-1.47,2.69-1.92,1.14-.45,2.46-.68,3.97-.68.8,0,1.64.06,2.53.19.89.13,1.68.31,2.36.56v-1.29c0-1.35-.41-2.41-1.23-3.19s-1.99-1.17-3.49-1.17c-.98,0-1.92.18-2.82.53s-1.85.86-2.86,1.52l-1.1-2.12c1.16-.8,2.33-1.4,3.49-1.8s2.37-.6,3.63-.6c2.28,0,4.08.63,5.41,1.88,1.32,1.26,1.99,3,1.99,5.24v7.5c0,.36.07.63.22.8.15.17.39.27.74.29v2.33c-.3.05-.55.08-.77.1s-.39.03-.53.03c-.71,0-1.24-.19-1.59-.58-.35-.39-.55-.8-.6-1.23l-.07-1.13c-.78,1-1.79,1.78-3.05,2.33s-2.5.82-3.73.82-2.25-.24-3.18-.73c-.94-.49-1.67-1.15-2.19-1.97-.53-.83-.79-1.75-.79-2.77ZM536.94,506.26c.27-.32.49-.64.65-.97.16-.33.24-.6.24-.83v-2.2c-.71-.27-1.45-.48-2.22-.63-.78-.15-1.54-.22-2.29-.22-1.53,0-2.77.3-3.71.9s-1.42,1.42-1.42,2.46c0,.56.15,1.11.46,1.64.31.53.76.97,1.37,1.3.6.34,1.35.51,2.24.51.94,0,1.83-.19,2.67-.56.84-.37,1.52-.84,2.02-1.41Z"/>
    <path class="cls-1" d="M550.22,510.15l-7.02-17.76h3.15l5.61,14.91,5.61-14.91h2.94l-7.02,17.76h-3.29Z"/>
    <path class="cls-1" d="M563.53,488.92v-3.77h3.01v3.77h-3.01ZM563.53,510.15v-17.87h3.01v17.87h-3.01Z"/>
    <path class="cls-1" d="M570,505.01c0-1.13.32-2.11.97-2.94.65-.83,1.55-1.47,2.69-1.92,1.14-.45,2.46-.68,3.97-.68.8,0,1.64.06,2.53.19.89.13,1.68.31,2.36.56v-1.29c0-1.35-.41-2.41-1.23-3.19s-1.99-1.17-3.49-1.17c-.98,0-1.92.18-2.82.53s-1.85.86-2.86,1.52l-1.1-2.12c1.16-.8,2.33-1.4,3.49-1.8s2.37-.6,3.63-.6c2.28,0,4.08.63,5.41,1.88,1.32,1.26,1.99,3,1.99,5.24v7.5c0,.36.07.63.22.8.15.17.39.27.74.29v2.33c-.3.05-.55.08-.77.1s-.39.03-.53.03c-.71,0-1.24-.19-1.59-.58-.35-.39-.55-.8-.6-1.23l-.07-1.13c-.78,1-1.79,1.78-3.05,2.33s-2.5.82-3.73.82-2.25-.24-3.18-.73c-.94-.49-1.67-1.15-2.19-1.97-.53-.83-.79-1.75-.79-2.77ZM581.64,506.26c.27-.32.49-.64.65-.97.16-.33.24-.6.24-.83v-2.2c-.71-.27-1.45-.48-2.22-.63-.78-.15-1.54-.22-2.29-.22-1.53,0-2.77.3-3.71.9s-1.42,1.42-1.42,2.46c0,.56.15,1.11.46,1.64.31.53.76.97,1.37,1.3.6.34,1.35.51,2.24.51.94,0,1.83-.19,2.67-.56.84-.37,1.52-.84,2.02-1.41Z"/>
    <path class="cls-1" d="M598.27,510.49c-1.35,0-2.57-.24-3.68-.73-1.11-.49-2.07-1.16-2.88-2-.81-.85-1.44-1.83-1.88-2.94-.44-1.11-.67-2.29-.67-3.53,0-1.68.39-3.21,1.16-4.59.78-1.38,1.85-2.49,3.23-3.33,1.38-.84,2.96-1.26,4.74-1.26s3.37.42,4.71,1.27c1.33.85,2.37,1.96,3.11,3.33.74,1.37,1.11,2.85,1.11,4.44,0,.23,0,.45-.02.66-.01.21-.03.38-.05.49h-14.82c.09,1.15.42,2.17.98,3.06.56.89,1.28,1.59,2.17,2.1s1.85.76,2.88.76c1.1,0,2.13-.27,3.1-.82s1.64-1.27,2-2.16l2.6.72c-.39.87-.96,1.64-1.73,2.33s-1.67,1.22-2.7,1.61c-1.04.39-2.16.58-3.37.58ZM592.25,500.22h12.19c-.09-1.15-.42-2.16-.99-3.04-.57-.88-1.3-1.57-2.19-2.06-.89-.5-1.87-.74-2.94-.74s-2.02.25-2.91.74c-.89.5-1.61,1.18-2.17,2.06s-.88,1.89-.98,3.04Z"/>
    <path class="cls-1" d="M618.26,498.3c0-2.33.47-4.61,1.42-6.85.95-2.24,2.09-4.5,3.44-6.78l2.33,1.03c-.43.64-.9,1.45-1.4,2.43-.5.98-.98,2.05-1.44,3.22-.46,1.16-.83,2.35-1.11,3.56s-.43,2.37-.43,3.49c0,1.8.39,3.74,1.16,5.8.78,2.07,1.83,4.14,3.15,6.21l-2.23,1.16c-.96-1.44-1.81-2.89-2.55-4.36-.74-1.47-1.32-2.96-1.73-4.47s-.62-2.99-.62-4.45Z"/>
    <path class="cls-1" d="M627.16,497.79c0-1.48.26-2.94.77-4.36.51-1.43,1.27-2.73,2.26-3.9.99-1.17,2.21-2.11,3.65-2.81,1.44-.7,3.07-1.04,4.89-1.04,2.17,0,4.03.5,5.58,1.49,1.55.99,2.7,2.26,3.46,3.82l-2.43,1.57c-.48-1.03-1.09-1.84-1.83-2.45-.74-.6-1.54-1.03-2.4-1.28s-1.69-.38-2.52-.38c-1.35,0-2.54.27-3.58.82-1.04.55-1.91,1.28-2.62,2.19-.71.91-1.24,1.93-1.59,3.06-.35,1.13-.53,2.26-.53,3.41,0,1.25.21,2.46.63,3.63.42,1.16,1.01,2.19,1.76,3.08s1.64,1.6,2.67,2.12c1.03.53,2.14.79,3.35.79.84,0,1.71-.15,2.6-.44.89-.3,1.72-.76,2.5-1.39.78-.63,1.39-1.44,1.85-2.45l2.57,1.4c-.5,1.21-1.28,2.24-2.33,3.08-1.05.84-2.22,1.48-3.51,1.92-1.29.43-2.56.65-3.82.65-1.67,0-3.2-.36-4.59-1.08-1.39-.72-2.6-1.68-3.61-2.88s-1.8-2.54-2.36-4.04c-.56-1.49-.84-3.01-.84-4.54Z"/>
    <path class="cls-1" d="M667.11,510.15h-3.01v-9.91c0-1.81-.33-3.17-.98-4.07-.65-.91-1.58-1.36-2.79-1.36-.78,0-1.56.2-2.34.61-.79.41-1.48.95-2.07,1.64-.59.69-1.03,1.48-1.3,2.38v10.7h-3.01v-24.99h3.01v11.06c.71-1.27,1.67-2.27,2.89-3.01,1.22-.74,2.54-1.1,3.95-1.1,1.07,0,1.97.19,2.69.56.72.37,1.29.9,1.73,1.58.43.68.75,1.47.94,2.36s.29,1.87.29,2.94v10.6Z"/>
    <path class="cls-1" d="M670.39,505.01c0-1.13.32-2.11.97-2.94.65-.83,1.55-1.47,2.69-1.92,1.14-.45,2.46-.68,3.97-.68.8,0,1.64.06,2.53.19.89.13,1.68.31,2.36.56v-1.29c0-1.35-.41-2.41-1.23-3.19s-1.99-1.17-3.49-1.17c-.98,0-1.92.18-2.82.53s-1.85.86-2.86,1.52l-1.1-2.12c1.16-.8,2.33-1.4,3.49-1.8s2.37-.6,3.63-.6c2.28,0,4.08.63,5.41,1.88,1.32,1.26,1.99,3,1.99,5.24v7.5c0,.36.07.63.22.8.15.17.39.27.74.29v2.33c-.3.05-.55.08-.77.1s-.39.03-.53.03c-.71,0-1.24-.19-1.59-.58-.35-.39-.55-.8-.6-1.23l-.07-1.13c-.78,1-1.79,1.78-3.05,2.33s-2.5.82-3.73.82-2.25-.24-3.18-.73c-.94-.49-1.67-1.15-2.19-1.97-.53-.83-.79-1.75-.79-2.77ZM682.03,506.26c.27-.32.49-.64.65-.97.16-.33.24-.6.24-.83v-2.2c-.71-.27-1.45-.48-2.22-.63-.78-.15-1.54-.22-2.29-.22-1.53,0-2.77.3-3.71.9s-1.42,1.42-1.42,2.46c0,.56.15,1.11.46,1.64.31.53.76.97,1.37,1.3.6.34,1.35.51,2.24.51.94,0,1.83-.19,2.67-.56.84-.37,1.52-.84,2.02-1.41Z"/>
    <path class="cls-1" d="M695.31,510.15l-7.02-17.76h3.15l5.61,14.91,5.61-14.91h2.94l-7.02,17.76h-3.29Z"/>
    <path class="cls-1" d="M715.92,510.49c-1.35,0-2.57-.24-3.68-.73-1.11-.49-2.07-1.16-2.88-2-.81-.85-1.44-1.83-1.88-2.94-.44-1.11-.67-2.29-.67-3.53,0-1.68.39-3.21,1.16-4.59.78-1.38,1.85-2.49,3.23-3.33,1.38-.84,2.96-1.26,4.74-1.26s3.37.42,4.71,1.27c1.33.85,2.37,1.96,3.11,3.33.74,1.37,1.11,2.85,1.11,4.44,0,.23,0,.45-.02.66-.01.21-.03.38-.05.49h-14.82c.09,1.15.42,2.17.98,3.06.56.89,1.28,1.59,2.17,2.1s1.85.76,2.88.76c1.1,0,2.13-.27,3.1-.82s1.64-1.27,2-2.16l2.6.72c-.39.87-.96,1.64-1.73,2.33s-1.67,1.22-2.7,1.61c-1.04.39-2.16.58-3.37.58ZM709.89,500.22h12.19c-.09-1.15-.42-2.16-.99-3.04-.57-.88-1.3-1.57-2.19-2.06-.89-.5-1.87-.74-2.94-.74s-2.02.25-2.91.74c-.89.5-1.61,1.18-2.17,2.06s-.88,1.89-.98,3.04Z"/>
    <path class="cls-1" d="M734.36,510.49c-1.48,0-2.88-.25-4.18-.74-1.3-.49-2.42-1.23-3.35-2.21l1.16-2.12c1.03.96,2.05,1.64,3.08,2.05,1.03.41,2.08.62,3.15.62,1.23,0,2.24-.23,3.01-.69.78-.46,1.16-1.14,1.16-2.04,0-.66-.2-1.14-.6-1.46s-.96-.58-1.69-.8c-.73-.22-1.6-.46-2.6-.73-1.23-.36-2.27-.75-3.11-1.15-.84-.41-1.48-.92-1.92-1.53-.43-.61-.65-1.38-.65-2.31,0-1.13.3-2.09.89-2.87.59-.78,1.41-1.38,2.45-1.78s2.22-.61,3.54-.61,2.52.21,3.59.62c1.07.41,2,1.02,2.77,1.81l-1.37,2.09c-.71-.73-1.48-1.27-2.33-1.63-.84-.35-1.79-.53-2.84-.53-.62,0-1.22.07-1.81.22-.59.15-1.08.41-1.47.78-.39.37-.58.9-.58,1.58,0,.57.15,1.01.46,1.34.31.33.76.61,1.37.83.6.23,1.34.48,2.21.75,1.35.38,2.52.77,3.51,1.15.99.38,1.76.88,2.31,1.49.55.61.82,1.46.82,2.54,0,1.67-.64,2.98-1.92,3.92-1.28.94-2.97,1.41-5.07,1.41Z"/>
    <path class="cls-1" d="M750.76,498.3c0,1.46-.21,2.94-.62,4.45-.41,1.51-.99,3-1.73,4.47s-1.59,2.93-2.55,4.36l-2.22-1.16c1.32-2.08,2.37-4.15,3.15-6.21s1.16-4,1.16-5.8c0-1.12-.14-2.28-.43-3.49-.29-1.21-.66-2.4-1.11-3.56-.46-1.16-.94-2.24-1.44-3.22-.5-.98-.97-1.79-1.4-2.43l2.33-1.03c1.35,2.28,2.49,4.54,3.44,6.78.95,2.24,1.42,4.52,1.42,6.85Z"/>
    <path class="cls-1" d="M323.7,546.08c0-1.13.33-2.11.98-2.94.65-.83,1.55-1.47,2.69-1.92,1.14-.45,2.46-.68,3.97-.68.8,0,1.64.06,2.53.19.89.13,1.68.31,2.36.56v-1.29c0-1.35-.41-2.41-1.23-3.19s-1.99-1.17-3.49-1.17c-.98,0-1.92.18-2.82.53-.9.35-1.85.86-2.86,1.52l-1.1-2.12c1.16-.8,2.33-1.4,3.49-1.8,1.16-.4,2.37-.6,3.63-.6,2.28,0,4.08.63,5.41,1.88,1.32,1.26,1.98,3,1.98,5.24v7.5c0,.36.07.63.22.8.15.17.39.27.74.29v2.33c-.3.05-.55.08-.77.1-.22.02-.39.03-.53.03-.71,0-1.24-.19-1.59-.58-.35-.39-.55-.8-.6-1.23l-.07-1.13c-.78,1-1.79,1.78-3.05,2.33-1.26.55-2.5.82-3.73.82s-2.25-.24-3.18-.73c-.94-.49-1.67-1.15-2.19-1.97-.52-.83-.79-1.75-.79-2.77ZM335.33,547.34c.27-.32.49-.64.65-.97.16-.33.24-.6.24-.83v-2.2c-.71-.27-1.45-.48-2.23-.63-.78-.15-1.54-.22-2.29-.22-1.53,0-2.77.3-3.71.9-.95.6-1.42,1.42-1.42,2.46,0,.56.15,1.11.46,1.64.31.53.76.97,1.37,1.3.6.34,1.35.51,2.24.51.94,0,1.83-.19,2.67-.56s1.52-.84,2.02-1.41Z"/>
    <path class="cls-1" d="M353.2,551.22v-24.3h10.13c1.07,0,2.05.22,2.94.67.89.45,1.67,1.04,2.33,1.78.66.74,1.17,1.57,1.54,2.5.36.92.55,1.87.55,2.82,0,1.32-.3,2.58-.89,3.78-.59,1.2-1.43,2.17-2.5,2.91-1.07.74-2.33,1.11-3.77,1.11h-7.26v8.73h-3.08ZM356.28,539.75h7.08c.84,0,1.58-.23,2.21-.68.63-.46,1.12-1.07,1.47-1.85.35-.78.53-1.62.53-2.53,0-.96-.21-1.82-.62-2.58s-.95-1.36-1.61-1.8c-.66-.43-1.39-.65-2.19-.65h-6.88v10.1Z"/>
    <path class="cls-1" d="M372.44,546.08c0-1.13.33-2.11.98-2.94.65-.83,1.55-1.47,2.69-1.92,1.14-.45,2.46-.68,3.97-.68.8,0,1.64.06,2.53.19.89.13,1.68.31,2.36.56v-1.29c0-1.35-.41-2.41-1.23-3.19s-1.99-1.17-3.49-1.17c-.98,0-1.92.18-2.82.53-.9.35-1.85.86-2.86,1.52l-1.1-2.12c1.16-.8,2.33-1.4,3.49-1.8,1.16-.4,2.37-.6,3.63-.6,2.28,0,4.08.63,5.41,1.88,1.32,1.26,1.98,3,1.98,5.24v7.5c0,.36.07.63.22.8.15.17.39.27.74.29v2.33c-.3.05-.55.08-.77.1-.22.02-.39.03-.53.03-.71,0-1.24-.19-1.59-.58-.35-.39-.55-.8-.6-1.23l-.07-1.13c-.78,1-1.79,1.78-3.05,2.33-1.26.55-2.5.82-3.73.82s-2.25-.24-3.18-.73c-.94-.49-1.67-1.15-2.19-1.97-.52-.83-.79-1.75-.79-2.77ZM384.07,547.34c.27-.32.49-.64.65-.97.16-.33.24-.6.24-.83v-2.2c-.71-.27-1.45-.48-2.23-.63-.78-.15-1.54-.22-2.29-.22-1.53,0-2.77.3-3.71.9-.95.6-1.42,1.42-1.42,2.46,0,.56.15,1.11.46,1.64.31.53.76.97,1.37,1.3.6.34,1.35.51,2.24.51.94,0,1.83-.19,2.67-.56s1.52-.84,2.02-1.41Z"/>
    <path class="cls-1" d="M401.91,550.43c-.25.11-.59.26-1.03.44-.43.18-.94.34-1.51.48-.57.14-1.18.21-1.81.21-.73,0-1.4-.13-2.02-.39-.62-.26-1.11-.67-1.47-1.23-.37-.56-.55-1.26-.55-2.11v-12.01h-2.43v-2.36h2.43v-5.96h3.01v5.96h4v2.36h-4v11.09c.05.64.26,1.11.65,1.42.39.31.84.46,1.37.46.59,0,1.14-.1,1.64-.31s.83-.35.99-.45l.72,2.4Z"/>
    <path class="cls-1" d="M414.16,535.99c-1.51.02-2.84.41-3.99,1.15-1.15.74-1.97,1.76-2.45,3.06v11.02h-3.01v-17.76h2.81v4.04c.62-1.23,1.43-2.23,2.45-3,1.02-.76,2.08-1.19,3.2-1.28h.58c.16,0,.3.01.41.03v2.74Z"/>
    <path class="cls-1" d="M417.14,530v-3.77h3.01v3.77h-3.01ZM417.14,551.22v-17.87h3.01v17.87h-3.01Z"/>
    <path class="cls-1" d="M451.95,551.22h-3.01v-9.91c0-1.85-.3-3.22-.91-4.11-.6-.88-1.5-1.32-2.69-1.32s-2.31.43-3.29,1.31c-.98.87-1.68,2-2.09,3.38v10.65h-3.01v-9.91c0-1.88-.3-3.25-.89-4.12s-1.48-1.31-2.67-1.31-2.28.42-3.27,1.27c-.99.84-1.69,1.97-2.1,3.36v10.7h-3.01v-17.76h2.74v3.84c.73-1.31,1.68-2.33,2.84-3.04,1.16-.71,2.48-1.07,3.94-1.07s2.67.4,3.56,1.21c.89.8,1.44,1.84,1.64,3.11.8-1.4,1.77-2.47,2.91-3.21,1.14-.74,2.44-1.1,3.9-1.1,1.03,0,1.89.19,2.58.56.7.37,1.25.89,1.66,1.56.41.67.71,1.46.89,2.36.18.91.27,1.89.27,2.96v10.6Z"/>
    <path class="cls-1" d="M464.44,551.56c-1.35,0-2.57-.24-3.66-.73-1.1-.49-2.04-1.16-2.84-2-.8-.85-1.42-1.83-1.85-2.94-.43-1.11-.65-2.28-.65-3.5s.22-2.42.65-3.53c.43-1.11,1.05-2.09,1.85-2.94.8-.85,1.75-1.52,2.86-2,1.11-.49,2.32-.73,3.65-.73s2.57.24,3.66.73c1.1.49,2.05,1.16,2.86,2,.81.85,1.43,1.83,1.87,2.94s.65,2.29.65,3.53-.22,2.39-.65,3.5c-.43,1.11-1.05,2.09-1.85,2.94-.8.85-1.75,1.52-2.86,2-1.11.49-2.33.73-3.68.73ZM458.52,542.42c0,1.22.27,2.33.8,3.32.54.99,1.25,1.78,2.14,2.35.89.58,1.88.86,2.98.86s2.09-.29,3-.88c.9-.59,1.62-1.38,2.16-2.39.54-1,.8-2.12.8-3.34s-.27-2.33-.8-3.32c-.54-.99-1.26-1.78-2.16-2.37-.9-.59-1.9-.88-3-.88s-2.09.3-2.98.9c-.89.6-1.6,1.39-2.14,2.39-.54.99-.8,2.11-.8,3.35ZM465.5,530.38l-1.99-.68,1.99-3.46h3.01l-3.01,4.14Z"/>
    <path class="cls-1" d="M492.65,551.22h-3.01v-9.91c0-1.88-.29-3.25-.87-4.12s-1.47-1.31-2.65-1.31c-.82,0-1.64.2-2.45.61-.81.41-1.53.95-2.16,1.64s-1.08,1.48-1.35,2.38v10.7h-3.01v-17.76h2.74v3.84c.48-.84,1.09-1.56,1.85-2.17s1.61-1.09,2.57-1.43,1.96-.51,3.01-.51,1.89.19,2.58.56c.7.37,1.24.89,1.64,1.56s.68,1.46.86,2.36c.17.91.26,1.89.26,2.96v10.6Z"/>
    <path class="cls-1" d="M497.34,530v-3.77h3.01v3.77h-3.01ZM497.34,551.22v-17.87h3.01v17.87h-3.01Z"/>
    <path class="cls-1" d="M513.01,551.56c-1.35,0-2.57-.24-3.66-.73-1.1-.49-2.04-1.16-2.84-2-.8-.85-1.42-1.83-1.85-2.94-.43-1.11-.65-2.28-.65-3.5s.22-2.42.65-3.53c.43-1.11,1.05-2.09,1.85-2.94.8-.85,1.75-1.52,2.86-2,1.11-.49,2.32-.73,3.65-.73s2.57.24,3.66.73c1.1.49,2.05,1.16,2.86,2,.81.85,1.43,1.83,1.87,2.94s.65,2.29.65,3.53-.22,2.39-.65,3.5c-.43,1.11-1.05,2.09-1.85,2.94-.8.85-1.75,1.52-2.86,2-1.11.49-2.33.73-3.68.73ZM507.09,542.42c0,1.22.27,2.33.8,3.32.54.99,1.25,1.78,2.14,2.35.89.58,1.88.86,2.98.86s2.09-.29,3-.88c.9-.59,1.62-1.38,2.16-2.39s.8-2.12.8-3.34-.27-2.33-.8-3.32c-.54-.99-1.25-1.78-2.16-2.37-.9-.59-1.9-.88-3-.88s-2.09.3-2.98.9c-.89.6-1.6,1.39-2.14,2.39-.54.99-.8,2.11-.8,3.35Z"/>
    <path class="cls-1" d="M555.87,551.22v-18.55l-8.01,14.27h-1.88l-8.04-14.27v18.55h-3.08v-24.3h3.25l8.8,15.78,8.83-15.78h3.22v24.3h-3.08Z"/>
    <path class="cls-1" d="M564.11,544.11v-10.65h3.01v10.06c0,1.81.32,3.17.96,4.08.64.91,1.59,1.36,2.84,1.36.82,0,1.61-.17,2.38-.53.76-.35,1.46-.85,2.07-1.51.62-.66,1.09-1.44,1.44-2.34v-11.13h3.01v14.35c0,.36.07.63.22.8s.39.27.74.29v2.33c-.34.05-.61.07-.8.09-.19.01-.38.02-.56.02-.57,0-1.06-.17-1.47-.53-.41-.35-.63-.79-.65-1.31l-.07-2.08c-.78,1.32-1.82,2.34-3.13,3.06-1.31.73-2.74,1.09-4.29,1.09-1.87,0-3.29-.63-4.25-1.89-.96-1.26-1.44-3.11-1.44-5.56Z"/>
    <path class="cls-1" d="M600.36,551.22h-3.01v-9.91c0-1.88-.29-3.25-.87-4.12s-1.47-1.31-2.65-1.31c-.82,0-1.64.2-2.45.61-.81.41-1.53.95-2.16,1.64s-1.08,1.48-1.35,2.38v10.7h-3.01v-17.76h2.74v3.84c.48-.84,1.09-1.56,1.85-2.17s1.61-1.09,2.57-1.43,1.96-.51,3.01-.51,1.89.19,2.58.56c.7.37,1.24.89,1.64,1.56s.68,1.46.86,2.36c.17.91.26,1.89.26,2.96v10.6Z"/>
    <path class="cls-1" d="M603.89,542.39c0-1.68.35-3.21,1.04-4.6.7-1.39,1.65-2.51,2.88-3.35s2.62-1.26,4.19-1.26c1.44,0,2.73.38,3.87,1.13,1.14.75,2.03,1.67,2.67,2.74v-10.82h3.01v21.56c0,.37.07.63.22.8.15.17.39.27.74.29v2.33c-.57.09-1.02.14-1.33.14-.59,0-1.11-.21-1.56-.62-.44-.41-.67-.87-.67-1.37v-1.51c-.71,1.14-1.66,2.04-2.84,2.7-1.19.66-2.42.99-3.7.99s-2.37-.24-3.41-.73c-1.04-.49-1.94-1.16-2.7-2.02-.76-.86-1.36-1.84-1.78-2.94s-.63-2.26-.63-3.48ZM618.54,545v-5.08c-.27-.77-.72-1.46-1.33-2.08s-1.31-1.12-2.07-1.49c-.76-.37-1.52-.56-2.28-.56-.89,0-1.69.19-2.41.56s-1.33.87-1.85,1.49-.91,1.33-1.18,2.12c-.27.79-.41,1.62-.41,2.47s.15,1.72.46,2.51c.31.79.74,1.49,1.3,2.1.56.61,1.21,1.08,1.95,1.42.74.34,1.55.51,2.41.51.55,0,1.11-.1,1.69-.3.58-.2,1.13-.49,1.66-.85.53-.36.97-.79,1.33-1.27.37-.49.6-1,.72-1.54Z"/>
    <path class="cls-1" d="M626.58,530v-3.77h3.01v3.77h-3.01ZM626.58,551.22v-17.87h3.01v17.87h-3.01Z"/>
    <path class="cls-1" d="M633.05,546.08c0-1.13.32-2.11.97-2.94.65-.83,1.55-1.47,2.69-1.92,1.14-.45,2.46-.68,3.97-.68.8,0,1.64.06,2.53.19.89.13,1.68.31,2.36.56v-1.29c0-1.35-.41-2.41-1.23-3.19s-1.99-1.17-3.49-1.17c-.98,0-1.92.18-2.82.53s-1.85.86-2.86,1.52l-1.1-2.12c1.16-.8,2.33-1.4,3.49-1.8s2.37-.6,3.63-.6c2.28,0,4.08.63,5.41,1.88,1.32,1.26,1.99,3,1.99,5.24v7.5c0,.36.07.63.22.8.15.17.39.27.74.29v2.33c-.3.05-.55.08-.77.1s-.39.03-.53.03c-.71,0-1.24-.19-1.59-.58-.35-.39-.55-.8-.6-1.23l-.07-1.13c-.78,1-1.79,1.78-3.05,2.33s-2.5.82-3.73.82-2.25-.24-3.18-.73c-.94-.49-1.67-1.15-2.19-1.97-.53-.83-.79-1.75-.79-2.77ZM644.69,547.34c.27-.32.49-.64.65-.97.16-.33.24-.6.24-.83v-2.2c-.71-.27-1.45-.48-2.22-.63-.78-.15-1.54-.22-2.29-.22-1.53,0-2.77.3-3.71.9s-1.42,1.42-1.42,2.46c0,.56.15,1.11.46,1.64.31.53.76.97,1.37,1.3.6.34,1.35.51,2.24.51.94,0,1.83-.19,2.67-.56.84-.37,1.52-.84,2.02-1.41Z"/>
    <path class="cls-1" d="M653.48,526.23h3.01v20.46c0,.99.14,1.59.41,1.82.27.23.6.34.99.34.48,0,.94-.05,1.37-.15s.8-.21,1.1-.33l.48,2.46c-.5.21-1.09.38-1.78.51s-1.29.21-1.81.21c-1.16,0-2.08-.33-2.75-1-.67-.66-1.01-1.59-1.01-2.78v-21.55Z"/>
    <path class="cls-1" d="M323.94,583.46c0-1.68.35-3.21,1.04-4.6.7-1.39,1.65-2.51,2.88-3.35s2.62-1.26,4.19-1.26c1.44,0,2.73.38,3.87,1.13,1.14.75,2.03,1.67,2.67,2.74v-10.82h3.01v21.56c0,.37.07.63.22.8.15.17.39.27.74.29v2.33c-.57.09-1.02.14-1.33.14-.59,0-1.11-.21-1.56-.62-.45-.41-.67-.87-.67-1.37v-1.51c-.71,1.14-1.65,2.04-2.84,2.7-1.19.66-2.42.99-3.7.99s-2.37-.24-3.41-.73c-1.04-.49-1.94-1.16-2.7-2.02-.77-.86-1.36-1.84-1.78-2.94-.42-1.1-.63-2.26-.63-3.48ZM338.59,586.07v-5.08c-.27-.77-.72-1.46-1.33-2.08-.62-.62-1.31-1.12-2.07-1.49-.77-.37-1.52-.56-2.28-.56-.89,0-1.69.19-2.41.56s-1.33.87-1.85,1.49c-.51.62-.91,1.33-1.18,2.12-.27.79-.41,1.62-.41,2.47s.15,1.72.46,2.51c.31.79.74,1.49,1.3,2.1.56.61,1.21,1.08,1.95,1.42.74.34,1.55.51,2.41.51.55,0,1.11-.1,1.69-.3.58-.2,1.13-.49,1.66-.85.52-.36.97-.79,1.33-1.27.36-.49.6-1,.72-1.54Z"/>
    <path class="cls-1" d="M345.23,587.16c0-1.13.33-2.11.98-2.94.65-.83,1.55-1.47,2.69-1.92,1.14-.45,2.46-.68,3.97-.68.8,0,1.64.06,2.53.19.89.13,1.68.31,2.36.56v-1.29c0-1.35-.41-2.41-1.23-3.19s-1.99-1.17-3.49-1.17c-.98,0-1.92.18-2.82.53-.9.35-1.85.86-2.86,1.52l-1.1-2.12c1.16-.8,2.33-1.4,3.49-1.8,1.16-.4,2.37-.6,3.63-.6,2.28,0,4.08.63,5.41,1.88,1.32,1.26,1.98,3,1.98,5.24v7.5c0,.36.07.63.22.8.15.17.39.27.74.29v2.33c-.3.05-.55.08-.77.1-.22.02-.39.03-.53.03-.71,0-1.24-.19-1.59-.58-.35-.39-.55-.8-.6-1.23l-.07-1.13c-.78,1-1.79,1.78-3.05,2.33-1.26.55-2.5.82-3.73.82s-2.25-.24-3.18-.73c-.94-.49-1.67-1.15-2.19-1.97-.52-.83-.79-1.75-.79-2.77ZM356.86,588.41c.27-.32.49-.64.65-.97.16-.33.24-.6.24-.83v-2.2c-.71-.27-1.45-.48-2.23-.63-.78-.15-1.54-.22-2.29-.22-1.53,0-2.77.3-3.71.9-.95.6-1.42,1.42-1.42,2.46,0,.56.15,1.11.46,1.64.31.53.76.97,1.37,1.3.6.34,1.35.51,2.24.51.94,0,1.83-.19,2.67-.56s1.52-.84,2.02-1.41Z"/>
    <path class="cls-1" d="M384.76,592.46c-1.94,0-3.57-.34-4.89-1.01-1.32-.67-2.38-1.59-3.18-2.74-.8-1.15-1.38-2.46-1.75-3.92-.37-1.46-.55-2.97-.55-4.52v-12.29h3.08v12.29c0,1.19.12,2.34.36,3.47.24,1.13.63,2.14,1.18,3.03s1.29,1.6,2.23,2.12c.94.53,2.1.79,3.49.79s2.59-.27,3.53-.8c.94-.54,1.68-1.25,2.23-2.16.55-.9.94-1.91,1.18-3.03.24-1.12.36-2.26.36-3.42v-12.29h3.08v12.29c0,1.64-.19,3.2-.56,4.67s-.98,2.77-1.8,3.88c-.82,1.12-1.89,2-3.2,2.65-1.31.65-2.9.98-4.77.98Z"/>
    <path class="cls-1" d="M403.65,573.67v18.62h-3.08v-24.3h2.6l14.86,19v-18.96h3.08v24.27h-2.81l-14.65-18.62Z"/>
    <path class="cls-1" d="M443.43,589.56v2.74h-16.5v-24.3h16.19v2.74h-13.11v7.87h11.4v2.57h-11.4v8.39h13.42Z"/>
    <path class="cls-1" d="M461.91,573.09c-.27-.32-.64-.63-1.1-.92-.46-.3-.97-.57-1.54-.8-.57-.24-1.19-.43-1.87-.58-.67-.15-1.38-.22-2.1-.22-1.87,0-3.25.35-4.14,1.06-.89.71-1.33,1.67-1.33,2.9,0,.86.23,1.55.68,2.05.46.5,1.16.91,2.1,1.23.95.32,2.15.65,3.61.99,1.69.36,3.15.81,4.38,1.33,1.23.52,2.18,1.22,2.84,2.1.66.88.99,2.04.99,3.5,0,1.16-.22,2.17-.67,3.02-.45.85-1.07,1.56-1.87,2.12s-1.73.97-2.81,1.23c-1.07.26-2.24.39-3.49.39s-2.44-.13-3.61-.39c-1.18-.26-2.29-.64-3.34-1.15-1.05-.5-2.03-1.13-2.94-1.88l1.47-2.6c.36.39.84.77,1.42,1.15.58.38,1.24.72,1.99,1.04.74.32,1.55.58,2.41.77.87.19,1.76.29,2.67.29,1.73,0,3.08-.31,4.04-.94.96-.62,1.44-1.54,1.44-2.74,0-.91-.27-1.64-.8-2.18-.54-.55-1.33-1-2.38-1.37-1.05-.36-2.33-.73-3.83-1.09-1.64-.41-3.02-.86-4.14-1.35-1.12-.49-1.96-1.13-2.52-1.93-.56-.8-.84-1.83-.84-3.11,0-1.55.38-2.85,1.13-3.92.75-1.07,1.79-1.88,3.11-2.42,1.32-.55,2.82-.82,4.48-.82,1.1,0,2.12.11,3.06.34.95.23,1.83.55,2.65.96.82.41,1.57.9,2.26,1.47l-1.44,2.5Z"/>
    <path class="cls-1" d="M466.91,579.94c0-1.48.26-2.94.77-4.36.51-1.43,1.27-2.73,2.26-3.9.99-1.17,2.21-2.11,3.65-2.81,1.44-.7,3.07-1.04,4.89-1.04,2.17,0,4.03.5,5.58,1.49,1.55.99,2.7,2.26,3.46,3.82l-2.43,1.57c-.48-1.03-1.09-1.84-1.83-2.45-.74-.6-1.54-1.03-2.4-1.28s-1.69-.38-2.52-.38c-1.35,0-2.54.27-3.58.82-1.04.55-1.91,1.28-2.62,2.19-.71.91-1.24,1.93-1.59,3.06-.35,1.13-.53,2.26-.53,3.41,0,1.25.21,2.46.63,3.63.42,1.16,1.01,2.19,1.76,3.08s1.64,1.6,2.67,2.12c1.03.53,2.14.79,3.35.79.84,0,1.71-.15,2.6-.44.89-.3,1.72-.76,2.5-1.39.78-.63,1.39-1.44,1.85-2.45l2.57,1.4c-.5,1.21-1.28,2.24-2.33,3.08-1.05.84-2.22,1.48-3.51,1.92-1.29.43-2.56.65-3.82.65-1.67,0-3.2-.36-4.59-1.08-1.39-.72-2.6-1.68-3.61-2.88s-1.8-2.54-2.36-4.04c-.56-1.49-.84-3.01-.84-4.54Z"/>
    <path class="cls-1" d="M501.41,592.46c-1.71,0-3.26-.34-4.66-1.03-1.39-.68-2.6-1.61-3.61-2.79-1.02-1.17-1.8-2.5-2.34-3.97-.55-1.47-.82-2.98-.82-4.54s.29-3.17.87-4.64,1.39-2.78,2.43-3.94c1.04-1.15,2.25-2.06,3.65-2.74,1.39-.67,2.91-1.01,4.55-1.01s3.26.35,4.66,1.06c1.39.71,2.59,1.65,3.59,2.84,1,1.19,1.78,2.51,2.33,3.97s.82,2.96.82,4.48c0,1.62-.29,3.17-.86,4.64-.57,1.47-1.38,2.78-2.41,3.94-1.04,1.15-2.25,2.06-3.65,2.72s-2.91.99-4.55.99ZM493.09,580.14c0,1.23.2,2.42.6,3.58.4,1.15.96,2.17,1.69,3.06.73.89,1.61,1.6,2.64,2.12,1.03.53,2.17.79,3.42.79s2.46-.27,3.49-.82c1.03-.55,1.9-1.28,2.62-2.19s1.27-1.94,1.64-3.08c.38-1.14.56-2.29.56-3.46,0-1.23-.2-2.42-.6-3.56-.4-1.14-.97-2.16-1.71-3.06-.74-.9-1.62-1.61-2.64-2.12s-2.14-.77-3.37-.77c-1.3,0-2.46.27-3.49.8-1.03.54-1.9,1.26-2.62,2.17s-1.27,1.93-1.66,3.06c-.39,1.13-.58,2.29-.58,3.47Z"/>
  </g>
  <g>
    <path class="cls-1" d="M83.73,178.15c.75.93-.09,2.51,2.21,3.47.97.41,1.55,1.03,2.61,2.28l11.29,13.23c1.61,1.92,2.14,4.22,1.63,5.35-.76,1.7-.86,2.5-.25,2.92.51.36,1.16.09,1.57-.38.21-.24.6-.8,1.18-1.81l5.19-9.06c.71-1.23-.87-2.71-1.64-1.37-.52.91-1.79,1.25-2.77.12l-7.89-9.22c-.08-.11-.1-.2-.06-.39l5.1-8.9c.15-.13.23-.15.37-.15l11.95,2.14c1.48.28,1.82,1.54,1.3,2.45-.77,1.34,1.3,1.96,2.01.72l5.19-9.06c.58-1.02.87-1.64.97-1.94.2-.6.1-1.3-.47-1.55-.67-.31-1.31.17-2.39,1.69-.72,1.01-2.98,1.71-5.44,1.3l-35.18-5.84c-2.31-.32-4.08-.2-4.76.98-.68,1.18.12,2.77,1.57,4.6l6.72,8.41ZM84.77,170.49c.09-.16.27-.34.41-.34l12.11,2.73c.19.04.29.24.2.4l-3.87,6.76c-.09.16-.31.18-.44.03l-8.48-9.06c-.08-.11,0-.36.08-.52Z"/>
    <path class="cls-1" d="M175.63,142.77c.67-.44,3.28-2.21,2.47-3.45-.37-.57-1.04-.35-1.68-.09-2.15.89-3.56.77-4.98-.29-2.43-1.81-4.33-3.81-7.42-2.1-2.9,1.67-4.13,1.36-4.39.73,5.71-7.19,5.54-16.74-.17-25.49-3.95-6.06-11.43-9.96-14.53-8.6-.79.37-1.32.12-1.59-.29-1.42-2.17-9.06-.66-13.98,2.55-8.18,5.33-13.9,18.5-6.07,30.51,6.51,9.99,18.07,12.78,27.09,8.52,2.27-1.04,3.65-1.2,5.64-.51,3.02,1.13,5.31.45,8.29-1.2,1.71-.89,2.41-1.28,5.07.76,1.68,1.34,4.39.17,6.25-1.05ZM151.54,139.08c-7.87,5.13-16.58,1.15-21.88-6.98-5.33-8.18-5.37-17.52,2.24-22.48,7.3-4.76,15.8-1.67,21.57,7.18,5.06,7.76,6.1,17.05-1.93,22.28Z"/>
    <path class="cls-1" d="M284.6,124.41c-1.15-.46-2.37-2.48-2.56-4.98l-2.73-35.56c-.24-2.32-.78-4.02-2.08-4.39-1.31-.37-2.67.78-4.09,2.62l-21.15,28.72c-1.48,2.02-3.58,3.09-4.81,2.87-1.83-.33-2.63-.24-2.89.46-.23.58.19,1.15.75,1.43.28.14.92.39,2.04.71l10.04,2.88c1.37.39,2.42-1.49.93-1.92-1.01-.29-1.65-1.44-.78-2.67l7.07-9.87c.09-.1.17-.14.37-.15l9.86,2.82c.16.11.2.19.23.32l.77,12.11c.08,1.5-1.06,2.14-2.07,1.85-1.48-.43-1.59,1.73-.22,2.12l10.04,2.88c1.13.32,1.8.45,2.11.48.63.05,1.28-.21,1.39-.82.14-.73-.48-1.23-2.21-1.92ZM274.58,102.84l-7.48-2.14c-.18-.05-.25-.26-.14-.42l6.77-10.4c.09-.1.35-.09.53-.04.18.05.4.18.42.31l.24,12.41c0,.2-.16.34-.34.29Z"/>
    <path class="cls-1" d="M319.92,148.73c1.96,1.79,5.19,5.31,7.2,7.14,1.14,1.04,2.92-.18,5.17-2.65,1.58-1.74,2.15-2.73,1.64-3.18-.23-.21-.67-.27-1.65.17-1.89.79-3.55.69-4.97-.6l-8.13-7.4c-.37-.33-.39-.94-.02-1.36l10.11-11.1c.25-.27.69-.29,1.01,0l5.94,5.41c2.79,2.54,2.11,3.93,1.54,4.83-.2.32-.49.81-.08,1.19,1.46,1.33,5.71-3.16,6.3-3.8,1.29-1.42,1.29-2.33.83-2.75-.23-.21-.63-.32-1.02-.26-1.31.06-2.91-1.39-10.36-8.17-.27-.25-.29-.69-.04-.96l7.4-8.13c.17-.18.43-.2.57-.07l6.9,6.28c3.93,3.58.66,4.78,1.94,5.94.69.62,1.5.19,2.7-1.13,1.46-1.6,2.36-1.95,3.02-2.68.54-.59.56-1.16-.12-1.7-5.62-4.2-12.1-10.76-17.26-15.46-.87-.79-2.09-1.74-2.81-1.05-.54.51-.19,1.5.05,2.05.87,1.8.16,3.4-2.38,6.19l-10.36,11.38c-.79.87-1.95,1.32-2.78,2.23-.25.27-.54.68-.77,1.22-.54,1.51-2.04,3.16-4.06,4.83-2.23,1.81-3.61,2.4-4.74,2.37-.53-.06-.91.09-1.21.41-.42.46-.38,1.16.03,1.62,3.36,3.56,6.48,5.64,10.41,9.22Z"/>
    <path class="cls-1" d="M122.29,279.21c.7-.31.89-.47,1.13-.66.63-.5.74-1.06.15-1.7-1.92-2.03-4.36-4.91-5.93-6.89-2.68-3.39-5.42-7.45-8.57-11.03-.38-.48-1.39-1.66-2.2-1.09-.62.41-.48,1.48-.21,2.53.2.55.6,2.05-4.15,5.81l-22,17.41c-.34.27-1.47.93-2.04.91-.35-.04-.88-.41-.91-.46-.65-.43-1.77-1.44-2.49-.86-.83.74.22,2.27,1.1,3.38l6.75,8.53c.54.68,1.24.67,1.63.37.39-.31.48-1.09-.21-1.96-.81-1.02-1.1-2.68,1.03-4.68.5-.56.74-.66.97-.77.6-.24,1.03-.5,1.22-.65.39-.31.83-1.05.9-1.35.14-.42.52-.73.96-1.08l7.22-5.71c.29-.23.72-.18.95.11l3.87,4.89c3.6,4.55-.12,5.53.84,6.74,1.23,1.55,6.49-2.46,7.22-3.03,1.5-1.19,1.65-2.09,1.27-2.58-.19-.24-.57-.42-.96-.42-1.49.31-4.37-3.63-8.36-8.67-.23-.29-.18-.72.11-.95l8.19-6.48c.39-.31.99-.24,1.34.2l1.07,1.36c8.17,10.32,3.06,9.64,4.36,11.28,1,1.26,2.54-.28,3.85-1.31.68-.54,1.15-.83,1.9-1.19Z"/>
    <path class="cls-1" d="M152.53,300.79c-1.32-1.02-3.26-2.56-4.22-3.53-1.3-1.33-3.02-2.36-3.69-1.56-.28.33-.18.89.16,1.35,1.39,1.81,2.15,3.01.57,4.91l-8.05,9.62c-3.77,4.5-6.04,7.51-7.28,7.84-.51.13-1.03.75-1.06,1.37,0,.4-.21,1.03-1.17,2.17-.83,1-2.35,3.11-3.18,3.71-1.89,1.4-4.48-1.57-5.5-.17-.35.51-.25,1.16.46,2.15.8,1.07,2.09,2.31,3.66,3.62,2.42,2.02,14.56,11.77,15.89,13.36.84,1.02.81,1.24,1.02,1.58.3.41.7.51,1.16.25,1.2-.77,5.24-5.69,6.52-7.6.08-.09.74-1.07.11-1.68-.43-.44-1.13-.38-1.7.11-2.93,2.54-3.75,2.75-6.43,1.63-.59-.25-4.44-3.07-8.22-6.55-1.24-1.12-1.54-2.98-.47-4.26l20.17-24.13c.97-.96,2.27-.6,3.35.23.85.63,1.47.75,1.72.07.41-1.27-1.24-2.57-3.82-4.48Z"/>
    <path class="cls-1" d="M207.48,368.26c-1.16-.45-2.4-2.45-2.62-4.95l-1.34-17.34c-.13-1.64-.15-2.48.24-3.46.95-2.3-.76-2.84-.88-4.02l-1.17-10.7c-.26-2.31-.83-4.01-2.14-4.36-1.31-.36-2.66.81-4.06,2.67l-20.81,28.96c-1.45,2.04-3.55,3.13-4.77,2.92-1.84-.31-2.63-.21-2.89.49-.22.58.2,1.14.76,1.43.28.14.92.38,2.05.69l10.07,2.76c1.37.38,2.4-1.52.91-1.93-1.01-.28-1.66-1.42-.81-2.66l6.95-9.95c.09-.1.17-.15.36-.16l9.89,2.71c.16.11.21.18.23.32l.91,12.1c.1,1.5-1.04,2.15-2.05,1.87-1.49-.41-1.57,1.75-.2,2.12l10.07,2.76c1.13.31,1.8.43,2.12.45.63.04,1.28-.23,1.38-.84.14-.73-.5-1.23-2.24-1.89ZM197.21,346.81l-7.51-2.06c-.18-.05-.25-.26-.14-.42l6.65-10.48c.09-.1.35-.1.53-.05.18.05.4.17.43.31l.38,12.41c.01.2-.16.34-.34.29Z"/>
    <path class="cls-1" d="M279.09,322.36c-2.82.33-6.63,1.28-8.48,1.44l-4.43.4c-.92.11-1.82.4-1.73,1.14.11.92,1.39,1.27,1.78,1.35,1.85.4,2.38.65,2.44,1.2.07.61-.37,1.1-.54,1.74l-6.89,27.01c-.04.19-.16.27-.28.28-.12.01-.25-.03-.34-.21l-12.99-24.66c-.32-.58-.86-.96-.93-1.57-.07-.55.39-.92,2.1-1.74.35-.17,1.52-.8,1.41-1.72-.09-.74-1.03-.81-1.95-.7l-4.4.64c-1.83.28-5.76.24-8.58.58-.74.09-1.94.42-1.83,1.4.09.8,1.18,1.04,1.69,1.11.31.03.56,0,.93.01,1.56.06,3.14.75,3.99,2.14l4.43,7.5c.39.64.47,1.31.5,2.12l.05.93c.06,1.55,1.2,2.22,1.27,2.34,1.11-.13,8.6,14.91,9.7,17.33,1.49,3.12,3.24,5.84,6.25,5.48,3.01-.35,4.08-3.41,4.8-6.79l8.47-33.11c.5-1.55,1.87-2.59,3.38-3.01.36-.1.61-.13.91-.23.48-.18,1.48-.67,1.38-1.47-.12-.98-1.37-1.02-2.1-.93Z"/>
    <path class="cls-1" d="M223.1,71.91c-2.77.65-6.45,2.02-8.26,2.38l-4.36.89c-.9.21-1.76.6-1.59,1.33.21.9,1.53,1.1,1.92,1.14,1.89.19,2.44.38,2.56.92.14.6-.24,1.14-.34,1.79l-3.82,27.61c-.02.19-.12.28-.24.31s-.25,0-.36-.17l-15.67-23.05c-.38-.55-.96-.85-1.1-1.46-.13-.54.28-.95,1.89-1.96.33-.2,1.42-.97,1.21-1.87-.17-.72-1.11-.69-2.02-.48l-4.3,1.13c-1.79.48-5.69.89-8.46,1.53-.72.17-1.88.63-1.66,1.59.18.78,1.29.9,1.8.91.31-.01.56-.07.93-.09,1.56-.11,3.2.39,4.2,1.68l5.25,6.96c.46.59.61,1.25.73,2.05l.15.92c.23,1.53,1.44,2.08,1.53,2.18,1.08-.25,10.22,13.85,11.58,16.14,1.83,2.94,3.87,5.44,6.82,4.75,2.95-.69,3.67-3.84,4.01-7.28l4.71-33.85c.32-1.6,1.57-2.78,3.02-3.37.35-.14.59-.2.87-.33.45-.23,1.39-.83,1.21-1.62-.23-.96-1.47-.86-2.19-.69Z"/>
    <path class="cls-1" d="M334.85,339.94c-2.77,1.52-5.78-2.86-8.73-7.36l-13.43-20.53c-.81-1.69-.06-2.47,1.11-3.61.57-.59.78-1.4.51-1.81-.54-.83-2.2.48-3.59,1.39l-4.5,2.94c-1.86,1.22-5.89,2.74-5.01,4.09.44.67,1.64.48,3.5-.07.91-.3,1.89-.28,2.53.71l1.69,2.59c1.25,1.91,1.84,2.93,1.94,3.75.09,1.49,1.72,1.83,2.36,2.81l11.57,17.69c.9,1.48.58,2.58-.53,3.82-.47.53-.97,1.23-.53,1.9.3.47.89.45,1.21.39,1.6-.38,8.74-5.49,11.01-6.98.72-.47.88-1.24.61-1.66-.3-.47-1.08-.4-1.73-.05Z"/>
    <path class="cls-1" d="M379.88,264.81c-.71-.21-1.27.38-2.1,2.04-.55,1.11-2.67,2.16-5.17,2.13l-35.66-.27c-2.33.04-4.07.44-4.55,1.71-.48,1.27.55,2.72,2.27,4.3l26.83,23.49c1.89,1.64,2.77,3.83,2.45,5.03-.49,1.8-.46,2.6.21,2.92.56.28,1.16-.09,1.49-.62.17-.27.47-.88.88-1.98l3.71-9.76c.51-1.33-1.28-2.54-1.83-1.09-.37.98-1.57,1.52-2.72.55l-9.24-7.88c-.09-.1-.13-.18-.12-.38l3.65-9.59c.12-.15.2-.19.34-.2l12.13.25c1.5.04,2.04,1.24,1.67,2.22-.55,1.44,1.59,1.73,2.1.4l3.71-9.76c.42-1.1.6-1.75.65-2.07.1-.62-.1-1.3-.7-1.46ZM355.44,275.01l-2.77,7.28c-.07.17-.28.22-.43.1l-9.79-7.62c-.09-.1-.06-.35,0-.53.07-.17.21-.38.35-.4l12.38.81c.2,0,.32.19.26.36Z"/>
    <path class="cls-1" d="M386.23,207.9c-2.34-.25-3.47-.12-3.54.56-.03.31.18.7,1.11,1.24,1.75,1.05,2.66,2.45,2.46,4.36l-1.15,10.94c-.05.49-.53.88-1.08.82l-14.93-1.57c-.37-.04-.64-.38-.6-.81l.84-7.99c.39-3.75,1.91-4.02,2.98-4.1.38-.02.94-.09,1-.64.21-1.97-5.93-2.73-6.79-2.83-1.91-.2-2.65.34-2.71.96-.03.31.11.7.39.97.83,1.02.6,3.17-.45,13.19-.04.37-.38.64-.75.6l-10.94-1.15c-.25-.03-.41-.23-.39-.41l.98-9.28c.56-5.28,3.46-3.36,3.64-5.08.1-.92-.73-1.32-2.51-1.51-2.15-.23-2.97-.75-3.95-.85-.8-.08-1.27.24-1.3,1.11-.05,7.02-1.51,16.12-2.24,23.06-.12,1.17-.16,2.72.82,2.88.73.14,1.32-.73,1.62-1.26.93-1.77,2.65-2.14,6.4-1.75l15.3,1.61c1.17.12,2.22.79,3.44.92.37.04.87.03,1.44-.1,1.54-.46,3.75-.23,6.29.41,2.78.73,4.07,1.48,4.72,2.42.26.46.61.69,1.04.73.61.06,1.16-.38,1.28-.98.88-4.82.71-8.56,1.27-13.85.28-2.64,1.21-7.33,1.49-10.03.16-1.54-1.88-2.25-5.19-2.6Z"/>
    <path class="cls-1" d="M367.48,170.34c2.37,1.95,5.65,1.88,7.32-.16,1.67-2.04,1.11-5.27-1.26-7.22-2.37-1.95-5.65-1.88-7.32.16s-1.11,5.27,1.26,7.22Z"/>
    <path class="cls-1" d="M79.91,233.8c2.35-1.97,2.88-5.21,1.19-7.23s-4.97-2.06-7.33-.09c-2.35,1.97-2.88,5.21-1.19,7.23,1.69,2.02,4.97,2.06,7.33.09Z"/>
  </g>
</svg>