<?xml version="1.0" encoding="UTF-8"?>
<svg id="Layer_1" data-name="Layer 1" xmlns="http://www.w3.org/2000/svg" version="1.1" viewBox="0 0 726.1 520.5">
  <defs>
    <style>
      .cls-1 {
        fill: #000;
        stroke-width: 0px;
      }
    </style>
  </defs>
  <g>
    <path class="cls-1" d="M252.4,343.9c0-1.5.3-2.9.8-4.4.5-1.4,1.3-2.7,2.3-3.9,1-1.2,2.2-2.1,3.6-2.8s3.1-1,4.9-1,4,.5,5.6,1.5,2.7,2.3,3.5,3.8l-2.4,1.6c-.5-1-1.1-1.8-1.8-2.5-.7-.6-1.5-1-2.4-1.3s-1.7-.4-2.5-.4c-1.4,0-2.5.3-3.6.8-1,.5-1.9,1.3-2.6,2.2s-1.2,1.9-1.6,3.1-.5,2.3-.5,3.4.2,2.5.6,3.6c.4,1.2,1,2.2,1.8,3.1s1.6,1.6,2.7,2.1c1,.5,2.1.8,3.4.8s1.7-.1,2.6-.4c.9-.3,1.7-.8,2.5-1.4s1.4-1.4,1.9-2.5l2.6,1.4c-.5,1.2-1.3,2.2-2.3,3.1s-2.2,1.5-3.5,1.9c-1.3.4-2.6.6-3.8.6s-3.2-.4-4.6-1.1c-1.4-.7-2.6-1.7-3.6-2.9-1-1.2-1.8-2.5-2.4-4-.6-1.5-.8-3-.8-4.5h0Z"/>
    <path class="cls-1" d="M275.4,351.1c0-1.1.3-2.1,1-2.9.6-.8,1.5-1.5,2.7-1.9s2.5-.7,4-.7,1.6,0,2.5.2c.9.1,1.7.3,2.4.6v-1.3c0-1.4-.4-2.4-1.2-3.2s-2-1.2-3.5-1.2-1.9.2-2.8.5-1.9.9-2.9,1.5l-1.1-2.1c1.2-.8,2.3-1.4,3.5-1.8s2.4-.6,3.6-.6c2.3,0,4.1.6,5.4,1.9,1.3,1.3,2,3,2,5.2v7.5c0,.4,0,.6.2.8.1.2.4.3.7.3v2.3c-.3,0-.5,0-.8.1-.2,0-.4,0-.5,0-.7,0-1.2-.2-1.6-.6-.4-.4-.5-.8-.6-1.2v-1.1c-.9,1-1.9,1.8-3.1,2.3-1.3.5-2.5.8-3.7.8s-2.2-.2-3.2-.7c-.9-.5-1.7-1.1-2.2-2-.5-.8-.8-1.8-.8-2.8h0ZM287.1,352.3c.3-.3.5-.6.6-1s.2-.6.2-.8v-2.2c-.7-.3-1.5-.5-2.2-.6s-1.5-.2-2.3-.2c-1.5,0-2.8.3-3.7.9-1,.6-1.4,1.4-1.4,2.5s.1,1.1.5,1.6c.3.5.8,1,1.4,1.3.6.3,1.4.5,2.2.5s1.8-.2,2.7-.6,1.5-.8,2-1.4h0Z"/>
    <path class="cls-1" d="M311.3,356.2h-3v-9.9c0-1.9-.3-3.2-.9-4.1s-1.5-1.3-2.6-1.3-1.6.2-2.5.6c-.8.4-1.5,1-2.2,1.6s-1.1,1.5-1.4,2.4v10.7h-3v-17.8h2.7v3.8c.5-.8,1.1-1.6,1.9-2.2.8-.6,1.6-1.1,2.6-1.4s2-.5,3-.5,1.9.2,2.6.6c.7.4,1.2.9,1.6,1.6.4.7.7,1.5.9,2.4.2.9.3,1.9.3,3v10.6h0Z"/>
    <path class="cls-1" d="M314.8,347.4c0-1.7.4-3.2,1-4.6.7-1.4,1.6-2.5,2.9-3.4s2.6-1.3,4.2-1.3,2.7.4,3.9,1.1c1.1.8,2,1.7,2.7,2.7v-10.8h3v21.6c0,.4,0,.6.2.8.1.2.4.3.7.3v2.3c-.6,0-1,.1-1.3.1-.6,0-1.1-.2-1.6-.6s-.7-.9-.7-1.4v-1.5c-.7,1.1-1.6,2-2.8,2.7s-2.4,1-3.7,1-2.4-.2-3.4-.7c-1-.5-1.9-1.2-2.7-2-.8-.9-1.4-1.8-1.8-2.9s-.6-2.3-.6-3.5h0ZM329.5,350v-5.1c-.3-.8-.7-1.5-1.3-2.1-.6-.6-1.3-1.1-2.1-1.5-.8-.4-1.5-.6-2.3-.6s-1.7.2-2.4.6-1.3.9-1.9,1.5c-.5.6-.9,1.3-1.2,2.1s-.4,1.6-.4,2.5.1,1.7.5,2.5.7,1.5,1.3,2.1c.6.6,1.2,1.1,2,1.4.7.3,1.5.5,2.4.5s1.1-.1,1.7-.3c.6-.2,1.1-.5,1.7-.9.5-.4,1-.8,1.3-1.3.4-.5.6-1,.7-1.5h0Z"/>
    <path class="cls-1" d="M337.5,335v-3.8h3v3.8h-3ZM337.5,356.2v-17.9h3v17.9h-3Z"/>
    <path class="cls-1" d="M344.2,347.4c0-1.7.4-3.2,1-4.6.7-1.4,1.6-2.5,2.9-3.4,1.2-.8,2.6-1.3,4.2-1.3s2.7.4,3.9,1.1c1.1.8,2,1.7,2.7,2.7v-10.8h3v21.6c0,.4,0,.6.2.8.1.2.4.3.7.3v2.3c-.6,0-1,.1-1.3.1-.6,0-1.1-.2-1.6-.6s-.7-.9-.7-1.4v-1.5c-.7,1.1-1.6,2-2.8,2.7s-2.4,1-3.7,1-2.4-.2-3.4-.7c-1-.5-1.9-1.2-2.7-2-.8-.9-1.4-1.8-1.8-2.9s-.6-2.3-.6-3.5h0ZM358.9,350v-5.1c-.3-.8-.7-1.5-1.3-2.1-.6-.6-1.3-1.1-2.1-1.5-.8-.4-1.5-.6-2.3-.6s-1.7.2-2.4.6-1.3.9-1.9,1.5c-.5.6-.9,1.3-1.2,2.1s-.4,1.6-.4,2.5.1,1.7.5,2.5.7,1.5,1.3,2.1c.6.6,1.2,1.1,2,1.4.7.3,1.5.5,2.4.5s1.1-.1,1.7-.3c.6-.2,1.1-.5,1.7-.9.5-.4,1-.8,1.3-1.3.4-.5.6-1,.7-1.5h0Z"/>
    <path class="cls-1" d="M365.5,351.1c0-1.1.3-2.1,1-2.9.6-.8,1.5-1.5,2.7-1.9s2.5-.7,4-.7,1.6,0,2.5.2c.9.1,1.7.3,2.4.6v-1.3c0-1.4-.4-2.4-1.2-3.2s-2-1.2-3.5-1.2-1.9.2-2.8.5-1.9.9-2.9,1.5l-1.1-2.1c1.2-.8,2.3-1.4,3.5-1.8s2.4-.6,3.6-.6c2.3,0,4.1.6,5.4,1.9,1.3,1.3,2,3,2,5.2v7.5c0,.4,0,.6.2.8.1.2.4.3.7.3v2.3c-.3,0-.5,0-.8.1-.2,0-.4,0-.5,0-.7,0-1.2-.2-1.6-.6-.4-.4-.5-.8-.6-1.2v-1.1c-.9,1-1.9,1.8-3.1,2.3-1.3.5-2.5.8-3.7.8s-2.2-.2-3.2-.7c-.9-.5-1.7-1.1-2.2-2-.5-.8-.8-1.8-.8-2.8h0ZM377.2,352.3c.3-.3.5-.6.6-1s.2-.6.2-.8v-2.2c-.7-.3-1.5-.5-2.2-.6s-1.5-.2-2.3-.2c-1.5,0-2.8.3-3.7.9-1,.6-1.4,1.4-1.4,2.5s.1,1.1.5,1.6c.3.5.8,1,1.4,1.3.6.3,1.4.5,2.2.5s1.8-.2,2.7-.6,1.5-.8,2-1.4h0Z"/>
    <path class="cls-1" d="M395,355.4c-.2.1-.6.3-1,.4-.4.2-.9.3-1.5.5s-1.2.2-1.8.2-1.4-.1-2-.4-1.1-.7-1.5-1.2c-.4-.6-.5-1.3-.5-2.1v-12h-2.4v-2.4h2.4v-6h3v6h4v2.4h-4v11.1c0,.6.3,1.1.6,1.4.4.3.8.5,1.4.5s1.1-.1,1.6-.3.8-.4,1-.5l.7,2.4h0Z"/>
    <path class="cls-1" d="M397.6,349.1v-10.6h3v10.1c0,1.8.3,3.2,1,4.1.6.9,1.6,1.4,2.8,1.4s1.6-.2,2.4-.5c.8-.4,1.5-.9,2.1-1.5.6-.7,1.1-1.4,1.4-2.3v-11.1h3v14.4c0,.4,0,.6.2.8s.4.3.7.3v2.3c-.3,0-.6,0-.8,0-.2,0-.4,0-.6,0-.6,0-1.1-.2-1.5-.5-.4-.4-.6-.8-.6-1.3v-2.1c-.9,1.3-1.9,2.3-3.2,3.1-1.3.7-2.7,1.1-4.3,1.1s-3.3-.6-4.2-1.9-1.4-3.1-1.4-5.6h0Z"/>
    <path class="cls-1" d="M427.8,341c-1.5,0-2.8.4-4,1.1-1.1.7-2,1.8-2.5,3.1v11h-3v-17.8h2.8v4c.6-1.2,1.4-2.2,2.5-3,1-.8,2.1-1.2,3.2-1.3h.6c.2,0,.3,0,.4,0v2.7h0Z"/>
    <path class="cls-1" d="M429.4,351.1c0-1.1.3-2.1,1-2.9.6-.8,1.5-1.5,2.7-1.9s2.5-.7,4-.7,1.6,0,2.5.2,1.7.3,2.4.6v-1.3c0-1.4-.4-2.4-1.2-3.2s-2-1.2-3.5-1.2-1.9.2-2.8.5-1.9.9-2.9,1.5l-1.1-2.1c1.2-.8,2.3-1.4,3.5-1.8s2.4-.6,3.6-.6c2.3,0,4.1.6,5.4,1.9,1.3,1.3,2,3,2,5.2v7.5c0,.4,0,.6.2.8.2.2.4.3.7.3v2.3c-.3,0-.5,0-.8.1s-.4,0-.5,0c-.7,0-1.2-.2-1.6-.6-.3-.4-.5-.8-.6-1.2v-1.1c-.9,1-1.9,1.8-3.1,2.3s-2.5.8-3.7.8-2.2-.2-3.2-.7c-.9-.5-1.7-1.1-2.2-2-.5-.8-.8-1.8-.8-2.8h0ZM441,352.3c.3-.3.5-.6.7-1,.2-.3.2-.6.2-.8v-2.2c-.7-.3-1.5-.5-2.2-.6-.8-.1-1.5-.2-2.3-.2-1.5,0-2.8.3-3.7.9s-1.4,1.4-1.4,2.5.1,1.1.5,1.6c.3.5.8,1,1.4,1.3.6.3,1.4.5,2.2.5s1.8-.2,2.7-.6c.8-.4,1.5-.8,2-1.4h0Z"/>
    <path class="cls-1" d="M457.3,347.4c0-1.7.3-3.2,1-4.6.7-1.4,1.7-2.5,2.9-3.4s2.6-1.3,4.2-1.3,2.7.4,3.9,1.1,2,1.7,2.7,2.7v-10.8h3v21.6c0,.4,0,.6.2.8.2.2.4.3.7.3v2.3c-.6,0-1,.1-1.3.1-.6,0-1.1-.2-1.6-.6-.4-.4-.7-.9-.7-1.4v-1.5c-.7,1.1-1.7,2-2.8,2.7-1.2.7-2.4,1-3.7,1s-2.4-.2-3.4-.7c-1-.5-1.9-1.2-2.7-2s-1.4-1.8-1.8-2.9-.6-2.3-.6-3.5h0ZM471.9,350v-5.1c-.3-.8-.7-1.5-1.3-2.1s-1.3-1.1-2.1-1.5-1.5-.6-2.3-.6-1.7.2-2.4.6-1.3.9-1.8,1.5-.9,1.3-1.2,2.1-.4,1.6-.4,2.5.2,1.7.5,2.5.7,1.5,1.3,2.1c.6.6,1.2,1.1,2,1.4.7.3,1.5.5,2.4.5s1.1-.1,1.7-.3c.6-.2,1.1-.5,1.7-.9.5-.4,1-.8,1.3-1.3.4-.5.6-1,.7-1.5h0Z"/>
    <path class="cls-1" d="M487.8,356.6c-1.3,0-2.6-.2-3.7-.7-1.1-.5-2-1.2-2.8-2-.8-.9-1.4-1.8-1.8-2.9-.4-1.1-.7-2.3-.7-3.5s.2-2.4.7-3.5c.4-1.1,1-2.1,1.8-2.9s1.8-1.5,2.9-2c1.1-.5,2.3-.7,3.7-.7s2.6.2,3.7.7c1.1.5,2,1.2,2.9,2,.8.9,1.4,1.8,1.9,2.9s.7,2.3.7,3.5-.2,2.4-.7,3.5c-.4,1.1-1,2.1-1.8,2.9s-1.8,1.5-2.9,2c-1.1.5-2.3.7-3.7.7h0ZM481.8,347.4c0,1.2.3,2.3.8,3.3.5,1,1.2,1.8,2.1,2.4.9.6,1.9.9,3,.9s2.1-.3,3-.9c.9-.6,1.6-1.4,2.2-2.4s.8-2.1.8-3.3-.3-2.3-.8-3.3c-.5-1-1.2-1.8-2.2-2.4-.9-.6-1.9-.9-3-.9s-2.1.3-3,.9c-.9.6-1.6,1.4-2.1,2.4-.5,1-.8,2.1-.8,3.4h0Z"/>
    <path class="cls-1" d="M252.4,384.9c0-1.5.3-2.9.8-4.4.5-1.4,1.3-2.7,2.3-3.9,1-1.2,2.2-2.1,3.6-2.8s3.1-1,4.9-1,4,.5,5.6,1.5,2.7,2.3,3.5,3.8l-2.4,1.6c-.5-1-1.1-1.8-1.8-2.5-.7-.6-1.5-1-2.4-1.3s-1.7-.4-2.5-.4c-1.4,0-2.5.3-3.6.8-1,.5-1.9,1.3-2.6,2.2s-1.2,1.9-1.6,3.1-.5,2.3-.5,3.4.2,2.5.6,3.6c.4,1.2,1,2.2,1.8,3.1s1.6,1.6,2.7,2.1c1,.5,2.1.8,3.4.8s1.7-.1,2.6-.4c.9-.3,1.7-.8,2.5-1.4s1.4-1.4,1.9-2.5l2.6,1.4c-.5,1.2-1.3,2.2-2.3,3.1s-2.2,1.5-3.5,1.9c-1.3.4-2.6.6-3.8.6s-3.2-.4-4.6-1.1c-1.4-.7-2.6-1.7-3.6-2.9-1-1.2-1.8-2.5-2.4-4-.6-1.5-.8-3-.8-4.5h0Z"/>
    <path class="cls-1" d="M284.7,397.6c-1.4,0-2.6-.2-3.7-.7-1.1-.5-2-1.2-2.8-2-.8-.9-1.4-1.8-1.9-2.9-.4-1.1-.6-2.3-.6-3.5s.2-2.4.6-3.5,1-2.1,1.9-2.9c.8-.9,1.8-1.5,2.9-2,1.1-.5,2.3-.7,3.6-.7s2.6.2,3.7.7c1.1.5,2,1.2,2.9,2,.8.9,1.4,1.8,1.9,2.9s.6,2.3.6,3.5-.2,2.4-.6,3.5-1,2.1-1.9,2.9c-.8.9-1.8,1.5-2.9,2-1.1.5-2.3.7-3.7.7h0ZM278.7,388.5c0,1.2.3,2.3.8,3.3.5,1,1.2,1.8,2.1,2.4.9.6,1.9.9,3,.9s2.1-.3,3-.9c.9-.6,1.6-1.4,2.2-2.4.5-1,.8-2.1.8-3.3s-.3-2.3-.8-3.3c-.5-1-1.3-1.8-2.2-2.4s-1.9-.9-3-.9-2.1.3-3,.9-1.6,1.4-2.1,2.4c-.5,1-.8,2.1-.8,3.4h0Z"/>
    <path class="cls-1" d="M312.9,397.3h-3v-9.9c0-1.9-.3-3.2-.9-4.1s-1.5-1.3-2.6-1.3-1.6.2-2.5.6c-.8.4-1.5,1-2.2,1.6s-1.1,1.5-1.4,2.4v10.7h-3v-17.8h2.7v3.8c.5-.8,1.1-1.6,1.9-2.2.8-.6,1.6-1.1,2.6-1.4s2-.5,3-.5,1.9.2,2.6.6c.7.4,1.2.9,1.6,1.6.4.7.7,1.5.9,2.4.2.9.3,1.9.3,3v10.6h0Z"/>
    <path class="cls-1" d="M315.3,403.7c-.8,0-1.5-.1-2.2-.3-.7-.2-1.3-.6-1.9-1.1l1.4-2c.3.3.7.5,1.1.6.4.1.8.2,1.2.2s1-.1,1.4-.4.8-.6,1.1-1,.4-.9.4-1.5v-18.6h3v18.4c0,1.1-.3,2.1-.8,3s-1.2,1.6-2,2c-.8.5-1.7.7-2.7.7h0ZM317.8,376.2v-3.8h3v3.8h-3Z"/>
    <path class="cls-1" d="M325.5,390.2v-10.6h3v10.1c0,1.8.3,3.2,1,4.1.6.9,1.6,1.4,2.8,1.4s1.6-.2,2.4-.5c.8-.4,1.5-.9,2.1-1.5.6-.7,1.1-1.4,1.4-2.3v-11.1h3v14.4c0,.4,0,.6.2.8s.4.3.7.3v2.3c-.3,0-.6,0-.8,0-.2,0-.4,0-.6,0-.6,0-1.1-.2-1.5-.5-.4-.4-.6-.8-.6-1.3v-2.1c-.9,1.3-1.9,2.3-3.2,3.1-1.3.7-2.7,1.1-4.3,1.1s-3.3-.6-4.2-1.9c-1-1.3-1.4-3.1-1.4-5.6h0Z"/>
    <path class="cls-1" d="M361.7,397.3h-3v-9.9c0-1.9-.3-3.2-.9-4.1s-1.5-1.3-2.6-1.3-1.6.2-2.5.6c-.8.4-1.5,1-2.2,1.6s-1.1,1.5-1.4,2.4v10.7h-3v-17.8h2.7v3.8c.5-.8,1.1-1.6,1.9-2.2.8-.6,1.6-1.1,2.6-1.4s2-.5,3-.5,1.9.2,2.6.6c.7.4,1.2.9,1.6,1.6.4.7.7,1.5.9,2.4.2.9.3,1.9.3,3v10.6h0Z"/>
    <path class="cls-1" d="M375.5,396.5c-.2.1-.6.3-1,.4-.4.2-.9.3-1.5.5s-1.2.2-1.8.2-1.4-.1-2-.4-1.1-.7-1.5-1.2c-.4-.6-.5-1.3-.5-2.1v-12h-2.4v-2.4h2.4v-6h3v6h4v2.4h-4v11.1c0,.6.3,1.1.6,1.4.4.3.8.5,1.4.5s1.1-.1,1.6-.3.8-.4,1-.5l.7,2.4h0Z"/>
    <path class="cls-1" d="M385.9,397.6c-1.4,0-2.6-.2-3.7-.7-1.1-.5-2-1.2-2.8-2-.8-.9-1.4-1.8-1.9-2.9-.4-1.1-.6-2.3-.6-3.5s.2-2.4.6-3.5,1-2.1,1.9-2.9c.8-.9,1.8-1.5,2.9-2,1.1-.5,2.3-.7,3.6-.7s2.6.2,3.7.7c1.1.5,2,1.2,2.9,2,.8.9,1.4,1.8,1.9,2.9s.6,2.3.6,3.5-.2,2.4-.6,3.5-1,2.1-1.9,2.9c-.8.9-1.8,1.5-2.9,2-1.1.5-2.3.7-3.7.7h0ZM379.9,388.5c0,1.2.3,2.3.8,3.3.5,1,1.2,1.8,2.1,2.4.9.6,1.9.9,3,.9s2.1-.3,3-.9c.9-.6,1.6-1.4,2.2-2.4.5-1,.8-2.1.8-3.3s-.3-2.3-.8-3.3c-.5-1-1.3-1.8-2.2-2.4s-1.9-.9-3-.9-2.1.3-3,.9-1.6,1.4-2.1,2.4c-.5,1-.8,2.1-.8,3.4h0Z"/>
    <path class="cls-1" d="M407.7,397.3v-24.3h10.1c1.1,0,2,.2,2.9.7s1.7,1,2.3,1.8c.7.7,1.2,1.6,1.5,2.5.4.9.5,1.9.5,2.8s-.3,2.6-.9,3.8c-.6,1.2-1.4,2.2-2.5,2.9s-2.3,1.1-3.8,1.1h-7.3v8.7h-3.1,0ZM410.8,385.8h7.1c.8,0,1.6-.2,2.2-.7.6-.5,1.1-1.1,1.5-1.9s.5-1.6.5-2.5-.2-1.8-.6-2.6c-.4-.8-1-1.4-1.6-1.8-.7-.4-1.4-.6-2.2-.6h-6.9v10.1h0Z"/>
    <path class="cls-1" d="M426.9,392.2c0-1.1.3-2.1,1-2.9.6-.8,1.5-1.5,2.7-1.9s2.5-.7,4-.7,1.6,0,2.5.2c.9.1,1.7.3,2.4.6v-1.3c0-1.4-.4-2.4-1.2-3.2s-2-1.2-3.5-1.2-1.9.2-2.8.5-1.9.9-2.9,1.5l-1.1-2.1c1.2-.8,2.3-1.4,3.5-1.8s2.4-.6,3.6-.6c2.3,0,4.1.6,5.4,1.9,1.3,1.3,2,3,2,5.2v7.5c0,.4,0,.6.2.8.2.2.4.3.7.3v2.3c-.3,0-.5,0-.8.1s-.4,0-.5,0c-.7,0-1.2-.2-1.6-.6-.4-.4-.5-.8-.6-1.2v-1.1c-.9,1-1.9,1.8-3.1,2.3s-2.5.8-3.7.8-2.2-.2-3.2-.7c-.9-.5-1.7-1.1-2.2-2-.5-.8-.8-1.8-.8-2.8h0ZM438.6,393.4c.3-.3.5-.6.6-1s.2-.6.2-.8v-2.2c-.7-.3-1.5-.5-2.2-.6-.8-.1-1.5-.2-2.3-.2-1.5,0-2.8.3-3.7.9s-1.4,1.4-1.4,2.5.1,1.1.5,1.6c.3.5.8,1,1.4,1.3.6.3,1.4.5,2.2.5s1.8-.2,2.7-.6c.8-.4,1.5-.8,2-1.4h0Z"/>
    <path class="cls-1" d="M456.4,396.5c-.2.1-.6.3-1,.4-.4.2-.9.3-1.5.5s-1.2.2-1.8.2-1.4-.1-2-.4-1.1-.7-1.5-1.2c-.4-.6-.5-1.3-.5-2.1v-12h-2.4v-2.4h2.4v-6h3v6h4v2.4h-4v11.1c0,.6.3,1.1.7,1.4.4.3.8.5,1.4.5s1.1-.1,1.6-.3.8-.4,1-.5l.7,2.4h0Z"/>
    <path class="cls-1" d="M468.7,382.1c-1.5,0-2.8.4-4,1.1-1.2.7-2,1.8-2.5,3.1v11h-3v-17.8h2.8v4c.6-1.2,1.4-2.2,2.5-3,1-.8,2.1-1.2,3.2-1.3h.6c.2,0,.3,0,.4,0v2.7h0Z"/>
    <path class="cls-1" d="M471.6,376.1v-3.8h3v3.8h-3ZM471.6,397.3v-17.9h3v17.9h-3Z"/>
    <path class="cls-1" d="M506.5,397.3h-3v-9.9c0-1.9-.3-3.2-.9-4.1-.6-.9-1.5-1.3-2.7-1.3s-2.3.4-3.3,1.3c-1,.9-1.7,2-2.1,3.4v10.6h-3v-9.9c0-1.9-.3-3.2-.9-4.1s-1.5-1.3-2.7-1.3-2.3.4-3.3,1.3c-1,.8-1.7,2-2.1,3.4v10.7h-3v-17.8h2.7v3.8c.7-1.3,1.7-2.3,2.8-3,1.2-.7,2.5-1.1,3.9-1.1s2.7.4,3.6,1.2c.9.8,1.4,1.8,1.6,3.1.8-1.4,1.8-2.5,2.9-3.2,1.1-.7,2.4-1.1,3.9-1.1s1.9.2,2.6.6c.7.4,1.2.9,1.7,1.6.4.7.7,1.5.9,2.4.2.9.3,1.9.3,3v10.6h0Z"/>
    <path class="cls-1" d="M518.9,397.6c-1.3,0-2.6-.2-3.7-.7-1.1-.5-2-1.2-2.8-2-.8-.9-1.4-1.8-1.8-2.9-.4-1.1-.7-2.3-.7-3.5s.2-2.4.7-3.5c.4-1.1,1-2.1,1.8-2.9s1.8-1.5,2.9-2c1.1-.5,2.3-.7,3.7-.7s2.6.2,3.7.7c1.1.5,2,1.2,2.9,2,.8.9,1.4,1.8,1.9,2.9s.7,2.3.7,3.5-.2,2.4-.7,3.5c-.4,1.1-1,2.1-1.8,2.9s-1.8,1.5-2.9,2c-1.1.5-2.3.7-3.7.7h0ZM513,388.5c0,1.2.3,2.3.8,3.3.5,1,1.2,1.8,2.1,2.4.9.6,1.9.9,3,.9s2.1-.3,3-.9c.9-.6,1.6-1.4,2.2-2.4s.8-2.1.8-3.3-.3-2.3-.8-3.3c-.5-1-1.2-1.8-2.2-2.4-.9-.6-1.9-.9-3-.9s-2.1.3-3,.9c-.9.6-1.6,1.4-2.1,2.4-.5,1-.8,2.1-.8,3.4h0Z"/>
    <path class="cls-1" d="M547.1,397.3h-3v-9.9c0-1.9-.3-3.2-.9-4.1s-1.5-1.3-2.7-1.3-1.6.2-2.5.6c-.8.4-1.5,1-2.2,1.6s-1.1,1.5-1.3,2.4v10.7h-3v-17.8h2.7v3.8c.5-.8,1.1-1.6,1.8-2.2s1.6-1.1,2.6-1.4,2-.5,3-.5,1.9.2,2.6.6c.7.4,1.2.9,1.6,1.6s.7,1.5.9,2.4c.2.9.3,1.9.3,3v10.6h0Z"/>
    <path class="cls-1" d="M551.8,376.1v-3.8h3v3.8h-3ZM551.8,397.3v-17.9h3v17.9h-3Z"/>
    <path class="cls-1" d="M558.3,392.2c0-1.1.3-2.1,1-2.9.7-.8,1.5-1.5,2.7-1.9s2.5-.7,4-.7,1.6,0,2.5.2,1.7.3,2.4.6v-1.3c0-1.4-.4-2.4-1.2-3.2s-2-1.2-3.5-1.2-1.9.2-2.8.5-1.8.9-2.9,1.5l-1.1-2.1c1.2-.8,2.3-1.4,3.5-1.8s2.4-.6,3.6-.6c2.3,0,4.1.6,5.4,1.9,1.3,1.3,2,3,2,5.2v7.5c0,.4,0,.6.2.8.2.2.4.3.7.3v2.3c-.3,0-.5,0-.8.1s-.4,0-.5,0c-.7,0-1.2-.2-1.6-.6-.3-.4-.5-.8-.6-1.2v-1.1c-.9,1-1.9,1.8-3.1,2.3s-2.5.8-3.7.8-2.2-.2-3.2-.7c-.9-.5-1.7-1.1-2.2-2-.5-.8-.8-1.8-.8-2.8h0ZM569.9,393.4c.3-.3.5-.6.7-1,.2-.3.2-.6.2-.8v-2.2c-.7-.3-1.5-.5-2.2-.6-.8-.1-1.5-.2-2.3-.2-1.5,0-2.8.3-3.7.9s-1.4,1.4-1.4,2.5.2,1.1.5,1.6c.3.5.8,1,1.4,1.3.6.3,1.3.5,2.2.5s1.8-.2,2.7-.6c.8-.4,1.5-.8,2-1.4h0Z"/>
    <path class="cls-1" d="M578.7,372.3h3v20.5c0,1,.1,1.6.4,1.8.3.2.6.3,1,.3s.9,0,1.4-.1.8-.2,1.1-.3l.5,2.5c-.5.2-1.1.4-1.8.5s-1.3.2-1.8.2c-1.2,0-2.1-.3-2.8-1-.7-.7-1-1.6-1-2.8v-21.5h0Z"/>
    <path class="cls-1" d="M596.6,397.3v-24.3h10.4c1.1,0,2,.2,2.9.7s1.7,1,2.3,1.8,1.2,1.6,1.5,2.5c.4.9.5,1.9.5,2.8s-.2,2.2-.6,3.2-1,1.9-1.8,2.6c-.8.7-1.7,1.2-2.7,1.5l5.9,9.3h-3.5l-5.5-8.7h-6.4v8.7h-3.1ZM599.7,385.8h7.4c.8,0,1.6-.2,2.2-.7s1.1-1.1,1.5-1.9.5-1.6.5-2.5-.2-1.8-.6-2.5c-.4-.8-1-1.4-1.6-1.8-.7-.5-1.4-.7-2.2-.7h-7.2v10.1h0Z"/>
    <path class="cls-1" d="M625.8,397.6c-1.3,0-2.6-.2-3.7-.7-1.1-.5-2-1.2-2.8-2-.8-.9-1.4-1.8-1.8-2.9-.4-1.1-.7-2.3-.7-3.5s.2-2.4.7-3.5c.4-1.1,1-2.1,1.8-2.9s1.8-1.5,2.9-2c1.1-.5,2.3-.7,3.7-.7s2.6.2,3.7.7c1.1.5,2,1.2,2.9,2,.8.9,1.4,1.8,1.9,2.9s.7,2.3.7,3.5-.2,2.4-.7,3.5c-.4,1.1-1,2.1-1.8,2.9s-1.8,1.5-2.9,2c-1.1.5-2.3.7-3.7.7h0ZM619.9,388.5c0,1.2.3,2.3.8,3.3.5,1,1.2,1.8,2.1,2.4.9.6,1.9.9,3,.9s2.1-.3,3-.9c.9-.6,1.6-1.4,2.2-2.4s.8-2.1.8-3.3-.3-2.3-.8-3.3c-.5-1-1.2-1.8-2.2-2.4-.9-.6-1.9-.9-3-.9s-2.1.3-3,.9c-.9.6-1.6,1.4-2.1,2.4-.5,1-.8,2.1-.8,3.4h0Z"/>
    <path class="cls-1" d="M665.4,397.3h-3v-9.9c0-1.9-.3-3.2-.9-4.1-.6-.9-1.5-1.3-2.7-1.3s-2.3.4-3.3,1.3c-1,.9-1.7,2-2.1,3.4v10.6h-3v-9.9c0-1.9-.3-3.2-.9-4.1s-1.5-1.3-2.7-1.3-2.3.4-3.3,1.3c-1,.8-1.7,2-2.1,3.4v10.7h-3v-17.8h2.7v3.8c.7-1.3,1.7-2.3,2.8-3,1.2-.7,2.5-1.1,3.9-1.1s2.7.4,3.6,1.2c.9.8,1.4,1.8,1.6,3.1.8-1.4,1.8-2.5,2.9-3.2,1.1-.7,2.4-1.1,3.9-1.1s1.9.2,2.6.6c.7.4,1.2.9,1.7,1.6.4.7.7,1.5.9,2.4.2.9.3,1.9.3,3v10.6h0Z"/>
    <path class="cls-1" d="M668.7,392.2c0-1.1.3-2.1,1-2.9.7-.8,1.5-1.5,2.7-1.9s2.5-.7,4-.7,1.6,0,2.5.2,1.7.3,2.4.6v-1.3c0-1.4-.4-2.4-1.2-3.2s-2-1.2-3.5-1.2-1.9.2-2.8.5-1.8.9-2.9,1.5l-1.1-2.1c1.2-.8,2.3-1.4,3.5-1.8s2.4-.6,3.6-.6c2.3,0,4.1.6,5.4,1.9,1.3,1.3,2,3,2,5.2v7.5c0,.4,0,.6.2.8.2.2.4.3.7.3v2.3c-.3,0-.5,0-.8.1s-.4,0-.5,0c-.7,0-1.2-.2-1.6-.6-.3-.4-.5-.8-.6-1.2v-1.1c-.9,1-1.9,1.8-3.1,2.3s-2.5.8-3.7.8-2.2-.2-3.2-.7c-.9-.5-1.7-1.1-2.2-2-.5-.8-.8-1.8-.8-2.8h0ZM680.4,393.4c.3-.3.5-.6.7-1,.2-.3.2-.6.2-.8v-2.2c-.7-.3-1.5-.5-2.2-.6-.8-.1-1.5-.2-2.3-.2-1.5,0-2.8.3-3.7.9s-1.4,1.4-1.4,2.5.2,1.1.5,1.6c.3.5.8,1,1.4,1.3.6.3,1.3.5,2.2.5s1.8-.2,2.7-.6c.8-.4,1.5-.8,2-1.4h0Z"/>
    <path class="cls-1" d="M704.6,397.3h-3v-9.9c0-1.9-.3-3.2-.9-4.1s-1.5-1.3-2.7-1.3-1.6.2-2.5.6c-.8.4-1.5,1-2.2,1.6s-1.1,1.5-1.3,2.4v10.7h-3v-17.8h2.7v3.8c.5-.8,1.1-1.6,1.8-2.2s1.6-1.1,2.6-1.4,2-.5,3-.5,1.9.2,2.6.6c.7.4,1.2.9,1.6,1.6s.7,1.5.9,2.4c.2.9.3,1.9.3,3v10.6h0Z"/>
    <path class="cls-1" d="M717.1,397.6c-1.3,0-2.6-.2-3.7-.7-1.1-.5-2-1.2-2.8-2-.8-.9-1.4-1.8-1.8-2.9-.4-1.1-.7-2.3-.7-3.5s.2-2.4.7-3.5c.4-1.1,1-2.1,1.8-2.9s1.8-1.5,2.9-2c1.1-.5,2.3-.7,3.7-.7s2.6.2,3.7.7c1.1.5,2,1.2,2.9,2,.8.9,1.4,1.8,1.9,2.9s.7,2.3.7,3.5-.2,2.4-.7,3.5c-.4,1.1-1,2.1-1.8,2.9s-1.8,1.5-2.9,2c-1.1.5-2.3.7-3.7.7h0ZM711.2,388.5c0,1.2.3,2.3.8,3.3.5,1,1.2,1.8,2.1,2.4.9.6,1.9.9,3,.9s2.1-.3,3-.9c.9-.6,1.6-1.4,2.2-2.4s.8-2.1.8-3.3-.3-2.3-.8-3.3c-.5-1-1.2-1.8-2.2-2.4-.9-.6-1.9-.9-3-.9s-2.1.3-3,.9c-.9.6-1.6,1.4-2.1,2.4-.5,1-.8,2.1-.8,3.4h0Z"/>
    <path class="cls-1" d="M261.4,438.7c-1.4,0-2.6-.2-3.7-.7-1.1-.5-2.1-1.2-2.9-2-.8-.9-1.4-1.8-1.9-2.9-.5-1.1-.7-2.3-.7-3.5s.4-3.2,1.2-4.6c.8-1.4,1.9-2.5,3.2-3.3s3-1.3,4.7-1.3,3.4.4,4.7,1.3c1.3.9,2.4,2,3.1,3.3s1.1,2.9,1.1,4.4,0,.5,0,.7c0,.2,0,.4,0,.5h-14.8c0,1.1.4,2.2,1,3.1.6.9,1.3,1.6,2.2,2.1s1.9.8,2.9.8,2.1-.3,3.1-.8c1-.5,1.6-1.3,2-2.2l2.6.7c-.4.9-1,1.6-1.7,2.3-.8.7-1.7,1.2-2.7,1.6-1,.4-2.2.6-3.4.6h0ZM255.4,428.4h12.2c0-1.1-.4-2.2-1-3s-1.3-1.6-2.2-2.1c-.9-.5-1.9-.7-2.9-.7s-2,.2-2.9.7c-.9.5-1.6,1.2-2.2,2.1s-.9,1.9-1,3h0Z"/>
    <path class="cls-1" d="M300.7,438.4h-3v-9.9c0-1.9-.3-3.2-.9-4.1-.6-.9-1.5-1.3-2.7-1.3s-2.3.4-3.3,1.3c-1,.9-1.7,2-2.1,3.4v10.6h-3v-9.9c0-1.9-.3-3.2-.9-4.1s-1.5-1.3-2.7-1.3-2.3.4-3.3,1.3c-1,.8-1.7,2-2.1,3.4v10.7h-3v-17.8h2.7v3.8c.7-1.3,1.7-2.3,2.8-3,1.2-.7,2.5-1.1,3.9-1.1s2.7.4,3.6,1.2c.9.8,1.4,1.8,1.6,3.1.8-1.4,1.8-2.5,2.9-3.2s2.4-1.1,3.9-1.1,1.9.2,2.6.6c.7.4,1.2.9,1.7,1.6.4.7.7,1.5.9,2.4.2.9.3,1.9.3,3v10.6h0Z"/>
    <path class="cls-1" d="M320.8,414.1h2.6l9.9,24.3h-3.3l-2.7-7.1h-10.5l-2.7,7.1h-3.3l10-24.3h0ZM326.4,428.8l-4.3-11.2-4.3,11.2h8.6Z"/>
    <path class="cls-1" d="M342.5,438.7c-1.2,0-2.3-.2-3.2-.8s-1.8-1.2-2.5-2c-.7-.9-1.2-1.8-1.6-2.9s-.6-2.3-.6-3.5.2-2.4.6-3.5,1-2.1,1.8-2.9c.8-.8,1.7-1.5,2.7-2s2.1-.7,3.3-.7,2.7.3,3.8,1c1.1.7,2,1.6,2.7,2.6v-3.4h2.7v25.1h-3v-10.8c-1.6,2.6-3.9,3.8-6.6,3.8h0ZM343.5,436.1c.8,0,1.6-.2,2.3-.5s1.3-.8,1.9-1.4,1-1.2,1.4-1.9v-5.1c0-.6-.3-1.1-.7-1.6-.4-.5-.8-1-1.3-1.4-.5-.4-1.1-.7-1.7-1s-1.2-.3-1.8-.3c-.9,0-1.7.2-2.4.6-.7.4-1.4.9-1.9,1.5s-1,1.3-1.2,2.1-.4,1.6-.4,2.4.3,2.3.8,3.2c.5,1,1.2,1.8,2.1,2.4.9.6,1.9.9,3.1.9h0Z"/>
    <path class="cls-1" d="M356.8,431.2v-10.6h3v10.1c0,1.8.3,3.2,1,4.1.6.9,1.6,1.4,2.8,1.4s1.6-.2,2.4-.5c.8-.4,1.5-.9,2.1-1.5.6-.7,1.1-1.4,1.4-2.3v-11.1h3v14.4c0,.4,0,.6.2.8s.4.3.7.3v2.3c-.3,0-.6,0-.8,0-.2,0-.4,0-.6,0-.6,0-1.1-.2-1.5-.5-.4-.4-.6-.8-.6-1.3v-2.1c-.9,1.3-1.9,2.3-3.2,3.1-1.3.7-2.7,1.1-4.3,1.1s-3.3-.6-4.2-1.9c-1-1.3-1.4-3.1-1.4-5.6h0Z"/>
    <path class="cls-1" d="M376.1,433.2c0-1.1.3-2.1,1-2.9.6-.8,1.5-1.5,2.7-1.9s2.5-.7,4-.7,1.6,0,2.5.2c.9.1,1.7.3,2.4.6v-1.3c0-1.4-.4-2.4-1.2-3.2s-2-1.2-3.5-1.2-1.9.2-2.8.5-1.9.9-2.9,1.5l-1.1-2.1c1.2-.8,2.3-1.4,3.5-1.8s2.4-.6,3.6-.6c2.3,0,4.1.6,5.4,1.9,1.3,1.3,2,3,2,5.2v7.5c0,.4,0,.6.2.8.1.2.4.3.7.3v2.3c-.3,0-.5,0-.8.1-.2,0-.4,0-.5,0-.7,0-1.2-.2-1.6-.6-.4-.4-.5-.8-.6-1.2v-1.1c-.9,1-1.9,1.8-3.1,2.3-1.3.5-2.5.8-3.7.8s-2.2-.2-3.2-.7c-.9-.5-1.7-1.1-2.2-2-.5-.8-.8-1.8-.8-2.8h0ZM387.7,434.5c.3-.3.5-.6.6-1s.2-.6.2-.8v-2.2c-.7-.3-1.5-.5-2.2-.6s-1.5-.2-2.3-.2c-1.5,0-2.8.3-3.7.9-1,.6-1.4,1.4-1.4,2.5s.1,1.1.5,1.6c.3.5.8,1,1.4,1.3.6.3,1.4.5,2.2.5s1.8-.2,2.7-.6,1.5-.8,2-1.4h0Z"/>
    <path class="cls-1" d="M404.4,438.7c-1.4,0-2.6-.2-3.7-.7-1.1-.5-2.1-1.2-2.9-2-.8-.9-1.4-1.8-1.9-2.9-.5-1.1-.7-2.3-.7-3.5s.4-3.2,1.2-4.6c.8-1.4,1.9-2.5,3.2-3.3s3-1.3,4.7-1.3,3.4.4,4.7,1.3c1.3.9,2.4,2,3.1,3.3s1.1,2.9,1.1,4.4,0,.5,0,.7c0,.2,0,.4,0,.5h-14.8c0,1.1.4,2.2,1,3.1.6.9,1.3,1.6,2.2,2.1s1.9.8,2.9.8,2.1-.3,3.1-.8,1.6-1.3,2-2.2l2.6.7c-.4.9-1,1.6-1.7,2.3s-1.7,1.2-2.7,1.6c-1,.4-2.2.6-3.4.6h0ZM398.4,428.4h12.2c0-1.1-.4-2.2-1-3-.6-.9-1.3-1.6-2.2-2.1-.9-.5-1.9-.7-2.9-.7s-2,.2-2.9.7c-.9.5-1.6,1.2-2.2,2.1s-.9,1.9-1,3h0Z"/>
    <path class="cls-1" d="M425.8,438.4v-24.3h16v2.7h-13v8.1h10.9v2.6h-10.9v10.9h-3.1Z"/>
    <path class="cls-1" d="M445.4,413.4h3v20.5c0,1,.1,1.6.4,1.8.3.2.6.3,1,.3s.9,0,1.4-.1.8-.2,1.1-.3l.5,2.5c-.5.2-1.1.4-1.8.5s-1.3.2-1.8.2c-1.2,0-2.1-.3-2.8-1-.7-.7-1-1.6-1-2.8v-21.5h0Z"/>
    <path class="cls-1" d="M453.7,433.2c0-1.1.3-2.1,1-2.9.7-.8,1.5-1.5,2.7-1.9s2.5-.7,4-.7,1.6,0,2.5.2,1.7.3,2.4.6v-1.3c0-1.4-.4-2.4-1.2-3.2s-2-1.2-3.5-1.2-1.9.2-2.8.5-1.8.9-2.9,1.5l-1.1-2.1c1.2-.8,2.3-1.4,3.5-1.8s2.4-.6,3.6-.6c2.3,0,4.1.6,5.4,1.9,1.3,1.3,2,3,2,5.2v7.5c0,.4,0,.6.2.8.2.2.4.3.7.3v2.3c-.3,0-.5,0-.8.1s-.4,0-.5,0c-.7,0-1.2-.2-1.6-.6-.3-.4-.5-.8-.6-1.2v-1.1c-.9,1-1.9,1.8-3.1,2.3s-2.5.8-3.7.8-2.2-.2-3.2-.7c-.9-.5-1.7-1.1-2.2-2-.5-.8-.8-1.8-.8-2.8h0ZM465.3,434.5c.3-.3.5-.6.7-1,.2-.3.2-.6.2-.8v-2.2c-.7-.3-1.5-.5-2.2-.6-.8-.1-1.5-.2-2.3-.2-1.5,0-2.8.3-3.7.9s-1.4,1.4-1.4,2.5.2,1.1.5,1.6c.3.5.8,1,1.4,1.3.6.3,1.3.5,2.2.5s1.8-.2,2.7-.6c.8-.4,1.5-.8,2-1.4h0Z"/>
    <path class="cls-1" d="M478.6,438.4l-7-17.8h3.2l5.6,14.9,5.6-14.9h2.9l-7,17.8h-3.3,0Z"/>
    <path class="cls-1" d="M491.9,417.1v-3.8h3v3.8h-3ZM491.9,438.4v-17.9h3v17.9h-3Z"/>
    <path class="cls-1" d="M498.4,433.2c0-1.1.3-2.1,1-2.9.7-.8,1.5-1.5,2.7-1.9s2.5-.7,4-.7,1.6,0,2.5.2,1.7.3,2.4.6v-1.3c0-1.4-.4-2.4-1.2-3.2s-2-1.2-3.5-1.2-1.9.2-2.8.5-1.8.9-2.9,1.5l-1.1-2.1c1.2-.8,2.3-1.4,3.5-1.8s2.4-.6,3.6-.6c2.3,0,4.1.6,5.4,1.9,1.3,1.3,2,3,2,5.2v7.5c0,.4,0,.6.2.8.2.2.4.3.7.3v2.3c-.3,0-.5,0-.8.1s-.4,0-.5,0c-.7,0-1.2-.2-1.6-.6-.3-.4-.5-.8-.6-1.2v-1.1c-.9,1-1.9,1.8-3.1,2.3s-2.5.8-3.7.8-2.2-.2-3.2-.7c-.9-.5-1.7-1.1-2.2-2-.5-.8-.8-1.8-.8-2.8h0ZM510,434.5c.3-.3.5-.6.7-1,.2-.3.2-.6.2-.8v-2.2c-.7-.3-1.5-.5-2.2-.6-.8-.1-1.5-.2-2.3-.2-1.5,0-2.8.3-3.7.9s-1.4,1.4-1.4,2.5.2,1.1.5,1.6c.3.5.8,1,1.4,1.3.6.3,1.3.5,2.2.5s1.8-.2,2.7-.6c.8-.4,1.5-.8,2-1.4h0Z"/>
    <path class="cls-1" d="M526.7,438.7c-1.3,0-2.6-.2-3.7-.7-1.1-.5-2.1-1.2-2.9-2-.8-.9-1.4-1.8-1.9-2.9-.4-1.1-.7-2.3-.7-3.5s.4-3.2,1.2-4.6c.8-1.4,1.8-2.5,3.2-3.3s3-1.3,4.7-1.3,3.4.4,4.7,1.3c1.3.9,2.4,2,3.1,3.3s1.1,2.9,1.1,4.4,0,.5,0,.7c0,.2,0,.4,0,.5h-14.8c0,1.1.4,2.2,1,3.1.6.9,1.3,1.6,2.2,2.1s1.8.8,2.9.8,2.1-.3,3.1-.8,1.6-1.3,2-2.2l2.6.7c-.4.9-1,1.6-1.7,2.3s-1.7,1.2-2.7,1.6c-1,.4-2.2.6-3.4.6h0ZM520.7,428.4h12.2c0-1.1-.4-2.2-1-3s-1.3-1.6-2.2-2.1c-.9-.5-1.9-.7-2.9-.7s-2,.2-2.9.7c-.9.5-1.6,1.2-2.2,2.1s-.9,1.9-1,3h0Z"/>
    <path class="cls-1" d="M546.7,426.5c0-2.3.5-4.6,1.4-6.9,1-2.2,2.1-4.5,3.4-6.8l2.3,1c-.4.6-.9,1.5-1.4,2.4-.5,1-1,2-1.4,3.2-.5,1.2-.8,2.4-1.1,3.6s-.4,2.4-.4,3.5c0,1.8.4,3.7,1.2,5.8.8,2.1,1.8,4.1,3.2,6.2l-2.2,1.2c-1-1.4-1.8-2.9-2.5-4.4-.7-1.5-1.3-3-1.7-4.5s-.6-3-.6-4.5h0Z"/>
    <path class="cls-1" d="M555.6,426c0-1.5.3-2.9.8-4.4.5-1.4,1.3-2.7,2.3-3.9,1-1.2,2.2-2.1,3.7-2.8s3.1-1,4.9-1,4,.5,5.6,1.5,2.7,2.3,3.5,3.8l-2.4,1.6c-.5-1-1.1-1.8-1.8-2.5-.7-.6-1.5-1-2.4-1.3s-1.7-.4-2.5-.4c-1.3,0-2.5.3-3.6.8-1,.5-1.9,1.3-2.6,2.2s-1.2,1.9-1.6,3.1c-.3,1.1-.5,2.3-.5,3.4s.2,2.5.6,3.6c.4,1.2,1,2.2,1.8,3.1s1.6,1.6,2.7,2.1c1,.5,2.1.8,3.3.8s1.7-.1,2.6-.4c.9-.3,1.7-.8,2.5-1.4s1.4-1.4,1.8-2.5l2.6,1.4c-.5,1.2-1.3,2.2-2.3,3.1s-2.2,1.5-3.5,1.9c-1.3.4-2.6.6-3.8.6s-3.2-.4-4.6-1.1-2.6-1.7-3.6-2.9-1.8-2.5-2.4-4c-.6-1.5-.8-3-.8-4.5h0Z"/>
    <path class="cls-1" d="M595.5,438.4h-3v-9.9c0-1.8-.3-3.2-1-4.1-.7-.9-1.6-1.4-2.8-1.4s-1.6.2-2.3.6c-.8.4-1.5,1-2.1,1.6s-1,1.5-1.3,2.4v10.7h-3v-25h3v11.1c.7-1.3,1.7-2.3,2.9-3,1.2-.7,2.5-1.1,4-1.1s2,.2,2.7.6c.7.4,1.3.9,1.7,1.6.4.7.8,1.5.9,2.4s.3,1.9.3,2.9v10.6h0Z"/>
    <path class="cls-1" d="M598.8,433.2c0-1.1.3-2.1,1-2.9.7-.8,1.5-1.5,2.7-1.9s2.5-.7,4-.7,1.6,0,2.5.2,1.7.3,2.4.6v-1.3c0-1.4-.4-2.4-1.2-3.2s-2-1.2-3.5-1.2-1.9.2-2.8.5-1.8.9-2.9,1.5l-1.1-2.1c1.2-.8,2.3-1.4,3.5-1.8s2.4-.6,3.6-.6c2.3,0,4.1.6,5.4,1.9,1.3,1.3,2,3,2,5.2v7.5c0,.4,0,.6.2.8.2.2.4.3.7.3v2.3c-.3,0-.5,0-.8.1s-.4,0-.5,0c-.7,0-1.2-.2-1.6-.6-.3-.4-.5-.8-.6-1.2v-1.1c-.9,1-1.9,1.8-3.1,2.3s-2.5.8-3.7.8-2.2-.2-3.2-.7c-.9-.5-1.7-1.1-2.2-2-.5-.8-.8-1.8-.8-2.8h0ZM610.4,434.5c.3-.3.5-.6.7-1,.2-.3.2-.6.2-.8v-2.2c-.7-.3-1.5-.5-2.2-.6-.8-.1-1.5-.2-2.3-.2-1.5,0-2.8.3-3.7.9s-1.4,1.4-1.4,2.5.2,1.1.5,1.6c.3.5.8,1,1.4,1.3.6.3,1.3.5,2.2.5s1.8-.2,2.7-.6c.8-.4,1.5-.8,2-1.4h0Z"/>
    <path class="cls-1" d="M623.7,438.4l-7-17.8h3.2l5.6,14.9,5.6-14.9h2.9l-7,17.8h-3.3,0Z"/>
    <path class="cls-1" d="M644.3,438.7c-1.3,0-2.6-.2-3.7-.7-1.1-.5-2.1-1.2-2.9-2-.8-.9-1.4-1.8-1.9-2.9-.4-1.1-.7-2.3-.7-3.5s.4-3.2,1.2-4.6c.8-1.4,1.8-2.5,3.2-3.3s3-1.3,4.7-1.3,3.4.4,4.7,1.3c1.3.9,2.4,2,3.1,3.3s1.1,2.9,1.1,4.4,0,.5,0,.7c0,.2,0,.4,0,.5h-14.8c0,1.1.4,2.2,1,3.1.6.9,1.3,1.6,2.2,2.1s1.8.8,2.9.8,2.1-.3,3.1-.8,1.6-1.3,2-2.2l2.6.7c-.4.9-1,1.6-1.7,2.3s-1.7,1.2-2.7,1.6c-1,.4-2.2.6-3.4.6h0ZM638.3,428.4h12.2c0-1.1-.4-2.2-1-3s-1.3-1.6-2.2-2.1c-.9-.5-1.9-.7-2.9-.7s-2,.2-2.9.7c-.9.5-1.6,1.2-2.2,2.1s-.9,1.9-1,3h0Z"/>
    <path class="cls-1" d="M662.8,438.7c-1.5,0-2.9-.2-4.2-.7s-2.4-1.2-3.3-2.2l1.2-2.1c1,1,2,1.6,3.1,2,1,.4,2.1.6,3.2.6s2.2-.2,3-.7c.8-.5,1.2-1.1,1.2-2s-.2-1.1-.6-1.5-1-.6-1.7-.8-1.6-.5-2.6-.7c-1.2-.4-2.3-.8-3.1-1.1-.8-.4-1.5-.9-1.9-1.5-.4-.6-.7-1.4-.7-2.3s.3-2.1.9-2.9,1.4-1.4,2.5-1.8,2.2-.6,3.5-.6,2.5.2,3.6.6,2,1,2.8,1.8l-1.4,2.1c-.7-.7-1.5-1.3-2.3-1.6-.8-.4-1.8-.5-2.8-.5s-1.2,0-1.8.2-1.1.4-1.5.8c-.4.4-.6.9-.6,1.6s.2,1,.5,1.3.8.6,1.4.8c.6.2,1.3.5,2.2.8,1.3.4,2.5.8,3.5,1.1s1.8.9,2.3,1.5.8,1.5.8,2.5c0,1.7-.6,3-1.9,3.9-1.3.9-3,1.4-5.1,1.4h0Z"/>
    <path class="cls-1" d="M679.2,426.5c0,1.5-.2,2.9-.6,4.5s-1,3-1.7,4.5-1.6,2.9-2.5,4.4l-2.2-1.2c1.3-2.1,2.4-4.1,3.2-6.2s1.2-4,1.2-5.8-.1-2.3-.4-3.5-.7-2.4-1.1-3.6c-.5-1.2-.9-2.2-1.4-3.2s-1-1.8-1.4-2.4l2.3-1c1.3,2.3,2.5,4.5,3.4,6.8s1.4,4.5,1.4,6.9h0Z"/>
    <path class="cls-1" d="M252.1,474.3c0-1.1.3-2.1,1-2.9.6-.8,1.5-1.5,2.7-1.9s2.5-.7,4-.7,1.6,0,2.5.2c.9.1,1.7.3,2.4.6v-1.3c0-1.3-.4-2.4-1.2-3.2s-2-1.2-3.5-1.2-1.9.2-2.8.5c-.9.3-1.9.9-2.9,1.5l-1.1-2.1c1.2-.8,2.3-1.4,3.5-1.8,1.2-.4,2.4-.6,3.6-.6,2.3,0,4.1.6,5.4,1.9,1.3,1.3,2,3,2,5.2v7.5c0,.4,0,.6.2.8s.4.3.7.3v2.3c-.3,0-.5,0-.8,0-.2,0-.4,0-.5,0-.7,0-1.2-.2-1.6-.6s-.5-.8-.6-1.2v-1.1c-.9,1-1.9,1.8-3.1,2.3-1.3.5-2.5.8-3.7.8s-2.2-.2-3.2-.7c-.9-.5-1.7-1.2-2.2-2-.5-.8-.8-1.8-.8-2.8h0ZM263.7,475.6c.3-.3.5-.6.6-1,.2-.3.2-.6.2-.8v-2.2c-.7-.3-1.5-.5-2.2-.6s-1.5-.2-2.3-.2c-1.5,0-2.8.3-3.7.9-1,.6-1.4,1.4-1.4,2.5s.1,1.1.5,1.6.8,1,1.4,1.3c.6.3,1.4.5,2.2.5s1.8-.2,2.7-.6,1.5-.8,2-1.4h0Z"/>
    <path class="cls-1" d="M281.6,479.4v-24.3h10.1c1.1,0,2,.2,2.9.7s1.7,1,2.3,1.8c.7.7,1.2,1.6,1.5,2.5.4.9.5,1.9.5,2.8s-.3,2.6-.9,3.8c-.6,1.2-1.4,2.2-2.5,2.9s-2.3,1.1-3.8,1.1h-7.3v8.7h-3.1,0ZM284.7,468h7.1c.8,0,1.6-.2,2.2-.7.6-.5,1.1-1.1,1.5-1.8.4-.8.5-1.6.5-2.5s-.2-1.8-.6-2.6-1-1.4-1.6-1.8c-.7-.4-1.4-.7-2.2-.7h-6.9v10.1h0Z"/>
    <path class="cls-1" d="M300.8,474.3c0-1.1.3-2.1,1-2.9.6-.8,1.5-1.5,2.7-1.9s2.5-.7,4-.7,1.6,0,2.5.2c.9.1,1.7.3,2.4.6v-1.3c0-1.3-.4-2.4-1.2-3.2s-2-1.2-3.5-1.2-1.9.2-2.8.5c-.9.3-1.9.9-2.9,1.5l-1.1-2.1c1.2-.8,2.3-1.4,3.5-1.8,1.2-.4,2.4-.6,3.6-.6,2.3,0,4.1.6,5.4,1.9,1.3,1.3,2,3,2,5.2v7.5c0,.4,0,.6.2.8s.4.3.7.3v2.3c-.3,0-.5,0-.8,0-.2,0-.4,0-.5,0-.7,0-1.2-.2-1.6-.6s-.5-.8-.6-1.2v-1.1c-.9,1-1.9,1.8-3.1,2.3-1.3.5-2.5.8-3.7.8s-2.2-.2-3.2-.7c-.9-.5-1.7-1.2-2.2-2-.5-.8-.8-1.8-.8-2.8h0ZM312.5,475.6c.3-.3.5-.6.6-1,.2-.3.2-.6.2-.8v-2.2c-.7-.3-1.5-.5-2.2-.6s-1.5-.2-2.3-.2c-1.5,0-2.8.3-3.7.9-1,.6-1.4,1.4-1.4,2.5s.1,1.1.5,1.6.8,1,1.4,1.3c.6.3,1.4.5,2.2.5s1.8-.2,2.7-.6,1.5-.8,2-1.4h0Z"/>
    <path class="cls-1" d="M330.3,478.6c-.2.1-.6.3-1,.4-.4.2-.9.3-1.5.5-.6.1-1.2.2-1.8.2s-1.4-.1-2-.4-1.1-.7-1.5-1.2c-.4-.6-.5-1.3-.5-2.1v-12h-2.4v-2.4h2.4v-6h3v6h4v2.4h-4v11.1c0,.6.3,1.1.6,1.4.4.3.8.5,1.4.5s1.1,0,1.6-.3.8-.3,1-.5l.7,2.4h0Z"/>
    <path class="cls-1" d="M342.6,464.2c-1.5,0-2.8.4-4,1.2-1.1.7-2,1.8-2.5,3.1v11h-3v-17.8h2.8v4c.6-1.2,1.4-2.2,2.5-3,1-.8,2.1-1.2,3.2-1.3h.6c.2,0,.3,0,.4,0v2.7Z"/>
    <path class="cls-1" d="M345.5,458.2v-3.8h3v3.8h-3ZM345.5,479.4v-17.9h3v17.9h-3Z"/>
    <path class="cls-1" d="M380.4,479.4h-3v-9.9c0-1.8-.3-3.2-.9-4.1-.6-.9-1.5-1.3-2.7-1.3s-2.3.4-3.3,1.3c-1,.9-1.7,2-2.1,3.4v10.7h-3v-9.9c0-1.9-.3-3.2-.9-4.1s-1.5-1.3-2.7-1.3-2.3.4-3.3,1.3c-1,.8-1.7,2-2.1,3.4v10.7h-3v-17.8h2.7v3.8c.7-1.3,1.7-2.3,2.8-3,1.2-.7,2.5-1.1,3.9-1.1s2.7.4,3.6,1.2c.9.8,1.4,1.8,1.6,3.1.8-1.4,1.8-2.5,2.9-3.2,1.1-.7,2.4-1.1,3.9-1.1s1.9.2,2.6.6c.7.4,1.2.9,1.7,1.6s.7,1.5.9,2.4c.2.9.3,1.9.3,3v10.6h0Z"/>
    <path class="cls-1" d="M392.8,479.8c-1.4,0-2.6-.2-3.7-.7-1.1-.5-2-1.2-2.8-2-.8-.8-1.4-1.8-1.9-2.9s-.6-2.3-.6-3.5.2-2.4.6-3.5c.4-1.1,1-2.1,1.9-2.9.8-.8,1.8-1.5,2.9-2,1.1-.5,2.3-.7,3.6-.7s2.6.2,3.7.7c1.1.5,2,1.2,2.9,2,.8.8,1.4,1.8,1.9,2.9s.6,2.3.6,3.5-.2,2.4-.6,3.5-1,2.1-1.9,2.9c-.8.8-1.8,1.5-2.9,2-1.1.5-2.3.7-3.7.7h0ZM386.9,470.6c0,1.2.3,2.3.8,3.3.5,1,1.2,1.8,2.1,2.3.9.6,1.9.9,3,.9s2.1-.3,3-.9c.9-.6,1.6-1.4,2.2-2.4.5-1,.8-2.1.8-3.3s-.3-2.3-.8-3.3c-.5-1-1.3-1.8-2.2-2.4-.9-.6-1.9-.9-3-.9s-2.1.3-3,.9c-.9.6-1.6,1.4-2.1,2.4-.5,1-.8,2.1-.8,3.3h0ZM393.9,458.6l-2-.7,2-3.5h3l-3,4.1Z"/>
    <path class="cls-1" d="M421.1,479.4h-3v-9.9c0-1.9-.3-3.2-.9-4.1s-1.5-1.3-2.6-1.3-1.6.2-2.5.6-1.5,1-2.2,1.6-1.1,1.5-1.4,2.4v10.7h-3v-17.8h2.7v3.8c.5-.8,1.1-1.6,1.9-2.2s1.6-1.1,2.6-1.4,2-.5,3-.5,1.9.2,2.6.6c.7.4,1.2.9,1.6,1.6s.7,1.5.9,2.4c.2.9.3,1.9.3,3v10.6h0Z"/>
    <path class="cls-1" d="M425.7,458.2v-3.8h3v3.8h-3ZM425.7,479.4v-17.9h3v17.9h-3Z"/>
    <path class="cls-1" d="M441.4,479.8c-1.4,0-2.6-.2-3.7-.7-1.1-.5-2-1.2-2.8-2-.8-.8-1.4-1.8-1.9-2.9s-.6-2.3-.6-3.5.2-2.4.6-3.5c.4-1.1,1-2.1,1.9-2.9.8-.8,1.8-1.5,2.9-2,1.1-.5,2.3-.7,3.7-.7s2.6.2,3.7.7c1.1.5,2,1.2,2.9,2,.8.8,1.4,1.8,1.9,2.9s.7,2.3.7,3.5-.2,2.4-.7,3.5c-.4,1.1-1,2.1-1.8,2.9s-1.8,1.5-2.9,2c-1.1.5-2.3.7-3.7.7h0ZM435.5,470.6c0,1.2.3,2.3.8,3.3.5,1,1.2,1.8,2.1,2.3.9.6,1.9.9,3,.9s2.1-.3,3-.9c.9-.6,1.6-1.4,2.2-2.4s.8-2.1.8-3.3-.3-2.3-.8-3.3c-.5-1-1.2-1.8-2.2-2.4-.9-.6-1.9-.9-3-.9s-2.1.3-3,.9c-.9.6-1.6,1.4-2.1,2.4-.5,1-.8,2.1-.8,3.3h0Z"/>
    <path class="cls-1" d="M484.3,479.4v-18.5l-8,14.3h-1.9l-8-14.3v18.5h-3.1v-24.3h3.2l8.8,15.8,8.8-15.8h3.2v24.3h-3.1Z"/>
    <path class="cls-1" d="M492.5,472.3v-10.7h3v10.1c0,1.8.3,3.2,1,4.1.6.9,1.6,1.4,2.8,1.4s1.6-.2,2.4-.5c.8-.3,1.5-.8,2.1-1.5.6-.7,1.1-1.4,1.4-2.3v-11.1h3v14.3c0,.4,0,.6.2.8s.4.3.7.3v2.3c-.3,0-.6,0-.8,0-.2,0-.4,0-.6,0-.6,0-1.1-.2-1.5-.5-.4-.3-.6-.8-.7-1.3v-2.1c-.9,1.3-1.9,2.3-3.2,3.1-1.3.7-2.7,1.1-4.3,1.1s-3.3-.6-4.2-1.9-1.4-3.1-1.4-5.6h0Z"/>
    <path class="cls-1" d="M528.8,479.4h-3v-9.9c0-1.9-.3-3.2-.9-4.1s-1.5-1.3-2.7-1.3-1.6.2-2.5.6-1.5,1-2.2,1.6-1.1,1.5-1.3,2.4v10.7h-3v-17.8h2.7v3.8c.5-.8,1.1-1.6,1.8-2.2s1.6-1.1,2.6-1.4,2-.5,3-.5,1.9.2,2.6.6c.7.4,1.2.9,1.6,1.6s.7,1.5.9,2.4c.2.9.3,1.9.3,3v10.6h0Z"/>
    <path class="cls-1" d="M532.3,470.6c0-1.7.3-3.2,1-4.6.7-1.4,1.7-2.5,2.9-3.3s2.6-1.3,4.2-1.3,2.7.4,3.9,1.1,2,1.7,2.7,2.7v-10.8h3v21.6c0,.4,0,.6.2.8.2.2.4.3.7.3v2.3c-.6,0-1,.1-1.3.1-.6,0-1.1-.2-1.6-.6-.4-.4-.7-.9-.7-1.4v-1.5c-.7,1.1-1.7,2-2.8,2.7-1.2.7-2.4,1-3.7,1s-2.4-.2-3.4-.7-1.9-1.2-2.7-2c-.8-.9-1.4-1.8-1.8-2.9s-.6-2.3-.6-3.5h0ZM546.9,473.2v-5.1c-.3-.8-.7-1.5-1.3-2.1s-1.3-1.1-2.1-1.5-1.5-.6-2.3-.6-1.7.2-2.4.6-1.3.9-1.8,1.5-.9,1.3-1.2,2.1-.4,1.6-.4,2.5.2,1.7.5,2.5c.3.8.7,1.5,1.3,2.1s1.2,1.1,2,1.4c.7.3,1.5.5,2.4.5s1.1,0,1.7-.3,1.1-.5,1.7-.8c.5-.4,1-.8,1.3-1.3.4-.5.6-1,.7-1.5h0Z"/>
    <path class="cls-1" d="M555,458.2v-3.8h3v3.8h-3ZM555,479.4v-17.9h3v17.9h-3Z"/>
    <path class="cls-1" d="M561.5,474.3c0-1.1.3-2.1,1-2.9.7-.8,1.5-1.5,2.7-1.9s2.5-.7,4-.7,1.6,0,2.5.2,1.7.3,2.4.6v-1.3c0-1.3-.4-2.4-1.2-3.2s-2-1.2-3.5-1.2-1.9.2-2.8.5-1.8.9-2.9,1.5l-1.1-2.1c1.2-.8,2.3-1.4,3.5-1.8s2.4-.6,3.6-.6c2.3,0,4.1.6,5.4,1.9,1.3,1.3,2,3,2,5.2v7.5c0,.4,0,.6.2.8.2.2.4.3.7.3v2.3c-.3,0-.5,0-.8,0s-.4,0-.5,0c-.7,0-1.2-.2-1.6-.6-.3-.4-.5-.8-.6-1.2v-1.1c-.9,1-1.9,1.8-3.1,2.3s-2.5.8-3.7.8-2.2-.2-3.2-.7c-.9-.5-1.7-1.2-2.2-2-.5-.8-.8-1.8-.8-2.8h0ZM573.1,475.6c.3-.3.5-.6.7-1,.2-.3.2-.6.2-.8v-2.2c-.7-.3-1.5-.5-2.2-.6-.8-.2-1.5-.2-2.3-.2-1.5,0-2.8.3-3.7.9s-1.4,1.4-1.4,2.5.2,1.1.5,1.6.8,1,1.4,1.3c.6.3,1.3.5,2.2.5s1.8-.2,2.7-.6c.8-.4,1.5-.8,2-1.4h0Z"/>
    <path class="cls-1" d="M581.9,454.4h3v20.5c0,1,.1,1.6.4,1.8.3.2.6.3,1,.3s.9,0,1.4-.2.8-.2,1.1-.3l.5,2.5c-.5.2-1.1.4-1.8.5s-1.3.2-1.8.2c-1.2,0-2.1-.3-2.8-1-.7-.7-1-1.6-1-2.8v-21.5h0Z"/>
    <path class="cls-1" d="M252.3,511.7c0-1.7.4-3.2,1-4.6.7-1.4,1.6-2.5,2.9-3.3s2.6-1.3,4.2-1.3,2.7.4,3.9,1.1c1.1.8,2,1.7,2.7,2.7v-10.8h3v21.6c0,.4,0,.6.2.8s.4.3.7.3v2.3c-.6,0-1,.1-1.3.1-.6,0-1.1-.2-1.6-.6s-.7-.9-.7-1.4v-1.5c-.7,1.1-1.6,2-2.8,2.7-1.2.7-2.4,1-3.7,1s-2.4-.2-3.4-.7-1.9-1.2-2.7-2c-.8-.9-1.4-1.8-1.8-2.9s-.6-2.3-.6-3.5h0ZM267,514.3v-5.1c-.3-.8-.7-1.5-1.3-2.1-.6-.6-1.3-1.1-2.1-1.5-.8-.4-1.5-.6-2.3-.6s-1.7.2-2.4.6-1.3.9-1.9,1.5c-.5.6-.9,1.3-1.2,2.1s-.4,1.6-.4,2.5.1,1.7.5,2.5c.3.8.7,1.5,1.3,2.1s1.2,1.1,2,1.4c.7.3,1.5.5,2.4.5s1.1,0,1.7-.3c.6-.2,1.1-.5,1.7-.8.5-.4,1-.8,1.3-1.3.4-.5.6-1,.7-1.5h0Z"/>
    <path class="cls-1" d="M273.6,515.4c0-1.1.3-2.1,1-2.9.6-.8,1.5-1.5,2.7-1.9s2.5-.7,4-.7,1.6,0,2.5.2c.9.1,1.7.3,2.4.6v-1.3c0-1.3-.4-2.4-1.2-3.2s-2-1.2-3.5-1.2-1.9.2-2.8.5c-.9.3-1.9.9-2.9,1.5l-1.1-2.1c1.2-.8,2.3-1.4,3.5-1.8,1.2-.4,2.4-.6,3.6-.6,2.3,0,4.1.6,5.4,1.9,1.3,1.3,2,3,2,5.2v7.5c0,.4,0,.6.2.8s.4.3.7.3v2.3c-.3,0-.5,0-.8,0-.2,0-.4,0-.5,0-.7,0-1.2-.2-1.6-.6s-.5-.8-.6-1.2v-1.1c-.9,1-1.9,1.8-3.1,2.3-1.3.5-2.5.8-3.7.8s-2.2-.2-3.2-.7c-.9-.5-1.7-1.2-2.2-2-.5-.8-.8-1.8-.8-2.8h0ZM285.3,516.6c.3-.3.5-.6.6-1,.2-.3.2-.6.2-.8v-2.2c-.7-.3-1.5-.5-2.2-.6s-1.5-.2-2.3-.2c-1.5,0-2.8.3-3.7.9-1,.6-1.4,1.4-1.4,2.5s.1,1.1.5,1.6.8,1,1.4,1.3c.6.3,1.4.5,2.2.5s1.8-.2,2.7-.6,1.5-.8,2-1.4h0Z"/>
    <path class="cls-1" d="M313.2,520.7c-1.9,0-3.6-.3-4.9-1s-2.4-1.6-3.2-2.7c-.8-1.2-1.4-2.5-1.8-3.9-.4-1.5-.5-3-.5-4.5v-12.3h3.1v12.3c0,1.2.1,2.3.4,3.5.2,1.1.6,2.1,1.2,3s1.3,1.6,2.2,2.1c.9.5,2.1.8,3.5.8s2.6-.3,3.5-.8c.9-.5,1.7-1.2,2.2-2.2.5-.9.9-1.9,1.2-3,.2-1.1.4-2.3.4-3.4v-12.3h3.1v12.3c0,1.6-.2,3.2-.6,4.7s-1,2.8-1.8,3.9c-.8,1.1-1.9,2-3.2,2.7s-2.9,1-4.8,1h0Z"/>
    <path class="cls-1" d="M332.1,501.9v18.6h-3.1v-24.3h2.6l14.9,19v-19h3.1v24.3h-2.8l-14.6-18.6h0Z"/>
    <path class="cls-1" d="M371.8,517.8v2.7h-16.5v-24.3h16.2v2.7h-13.1v7.9h11.4v2.6h-11.4v8.4h13.4,0Z"/>
    <path class="cls-1" d="M390.3,501.3c-.3-.3-.6-.6-1.1-.9-.5-.3-1-.6-1.5-.8-.6-.2-1.2-.4-1.9-.6-.7-.2-1.4-.2-2.1-.2-1.9,0-3.2.3-4.1,1.1s-1.3,1.7-1.3,2.9.2,1.5.7,2c.5.5,1.2.9,2.1,1.2,1,.3,2.1.7,3.6,1,1.7.4,3.1.8,4.4,1.3s2.2,1.2,2.8,2.1,1,2,1,3.5-.2,2.2-.7,3c-.5.8-1.1,1.6-1.9,2.1s-1.7,1-2.8,1.2c-1.1.3-2.2.4-3.5.4s-2.4-.1-3.6-.4c-1.2-.3-2.3-.6-3.3-1.2-1-.5-2-1.1-2.9-1.9l1.5-2.6c.4.4.8.8,1.4,1.2.6.4,1.2.7,2,1,.7.3,1.5.6,2.4.8.9.2,1.8.3,2.7.3,1.7,0,3.1-.3,4-.9,1-.6,1.4-1.5,1.4-2.7s-.3-1.6-.8-2.2c-.5-.5-1.3-1-2.4-1.4-1-.4-2.3-.7-3.8-1.1-1.6-.4-3-.9-4.1-1.3-1.1-.5-2-1.1-2.5-1.9s-.8-1.8-.8-3.1.4-2.8,1.1-3.9,1.8-1.9,3.1-2.4c1.3-.5,2.8-.8,4.5-.8s2.1.1,3.1.3c1,.2,1.8.5,2.6,1,.8.4,1.6.9,2.3,1.5l-1.4,2.5h0Z"/>
    <path class="cls-1" d="M395.3,508.2c0-1.5.3-2.9.8-4.4.5-1.4,1.3-2.7,2.3-3.9,1-1.2,2.2-2.1,3.6-2.8s3.1-1,4.9-1,4,.5,5.6,1.5,2.7,2.3,3.5,3.8l-2.4,1.6c-.5-1-1.1-1.8-1.8-2.5-.7-.6-1.5-1-2.4-1.3s-1.7-.4-2.5-.4c-1.4,0-2.5.3-3.6.8-1,.5-1.9,1.3-2.6,2.2s-1.2,1.9-1.6,3.1-.5,2.3-.5,3.4.2,2.5.6,3.6c.4,1.2,1,2.2,1.8,3.1s1.6,1.6,2.7,2.1c1,.5,2.1.8,3.4.8s1.7-.2,2.6-.4c.9-.3,1.7-.8,2.5-1.4s1.4-1.4,1.9-2.5l2.6,1.4c-.5,1.2-1.3,2.2-2.3,3.1s-2.2,1.5-3.5,1.9c-1.3.4-2.6.7-3.8.7s-3.2-.4-4.6-1.1c-1.4-.7-2.6-1.7-3.6-2.9s-1.8-2.5-2.4-4c-.6-1.5-.8-3-.8-4.5h0Z"/>
    <path class="cls-1" d="M429.8,520.7c-1.7,0-3.3-.3-4.7-1-1.4-.7-2.6-1.6-3.6-2.8-1-1.2-1.8-2.5-2.3-4-.5-1.5-.8-3-.8-4.5s.3-3.2.9-4.6,1.4-2.8,2.4-3.9c1-1.2,2.2-2.1,3.6-2.7,1.4-.7,2.9-1,4.5-1s3.3.3,4.7,1.1c1.4.7,2.6,1.7,3.6,2.8s1.8,2.5,2.3,4c.5,1.5.8,3,.8,4.5s-.3,3.2-.9,4.6c-.6,1.5-1.4,2.8-2.4,3.9-1,1.2-2.2,2.1-3.6,2.7s-2.9,1-4.5,1h0ZM421.5,508.4c0,1.2.2,2.4.6,3.6.4,1.2,1,2.2,1.7,3.1s1.6,1.6,2.6,2.1c1,.5,2.2.8,3.4.8s2.5-.3,3.5-.8,1.9-1.3,2.6-2.2,1.3-1.9,1.6-3.1c.4-1.1.6-2.3.6-3.5s-.2-2.4-.6-3.6-1-2.2-1.7-3.1-1.6-1.6-2.6-2.1-2.1-.8-3.4-.8-2.5.3-3.5.8c-1,.5-1.9,1.3-2.6,2.2s-1.3,1.9-1.7,3.1-.6,2.3-.6,3.5h0Z"/>
  </g>
  <g>
    <path class="cls-1" d="M12.1,106.4c.8.9,0,2.5,2.2,3.5,1,.4,1.6,1,2.6,2.3l11.3,13.2c1.6,1.9,2.1,4.2,1.6,5.4-.8,1.7-.9,2.5-.2,2.9.5.4,1.2,0,1.6-.4.2-.2.6-.8,1.2-1.8l5.2-9.1c.7-1.2-.9-2.7-1.6-1.4-.5.9-1.8,1.2-2.8.1l-7.9-9.2c0-.1,0-.2,0-.4l5.1-8.9c.2-.1.2-.1.4-.1l11.9,2.1c1.5.3,1.8,1.5,1.3,2.4-.8,1.3,1.3,2,2,.7l5.2-9.1c.6-1,.9-1.6,1-1.9.2-.6,0-1.3-.5-1.6-.7-.3-1.3.2-2.4,1.7-.7,1-3,1.7-5.4,1.3l-35.2-5.8c-2.3-.3-4.1-.2-4.8,1s.1,2.8,1.6,4.6l6.7,8.4h0ZM13.2,98.7c0-.2.3-.3.4-.3l12.1,2.7c.2,0,.3.2.2.4l-3.9,6.8c0,.2-.3.2-.4,0l-8.5-9.1c0-.1,0-.4,0-.5h0Z"/>
    <path class="cls-1" d="M104,71c.7-.4,3.3-2.2,2.5-3.4-.4-.6-1-.4-1.7,0-2.1.9-3.6.8-5-.3-2.4-1.8-4.3-3.8-7.4-2.1-2.9,1.7-4.1,1.4-4.4.7,5.7-7.2,5.5-16.7-.2-25.5-3.9-6.1-11.4-10-14.5-8.6-.8.4-1.3.1-1.6-.3-1.4-2.2-9.1-.7-14,2.6-8.2,5.3-13.9,18.5-6.1,30.5,6.5,10,18.1,12.8,27.1,8.5,2.3-1,3.6-1.2,5.6-.5,3,1.1,5.3.4,8.3-1.2,1.7-.9,2.4-1.3,5.1.8,1.7,1.3,4.4.2,6.2-1.1h0ZM79.9,67.3c-7.9,5.1-16.6,1.1-21.9-7-5.3-8.2-5.4-17.5,2.2-22.5,7.3-4.8,15.8-1.7,21.6,7.2,5.1,7.8,6.1,17-1.9,22.3h0Z"/>
    <path class="cls-1" d="M213,52.6c-1.1-.5-2.4-2.5-2.6-5l-2.7-35.6c-.2-2.3-.8-4-2.1-4.4-1.3-.4-2.7.8-4.1,2.6l-21.1,28.7c-1.5,2-3.6,3.1-4.8,2.9-1.8-.3-2.6-.2-2.9.5-.2.6.2,1.2.8,1.4s.9.4,2,.7l10,2.9c1.4.4,2.4-1.5.9-1.9-1-.3-1.6-1.4-.8-2.7l7.1-9.9c0,0,.2-.1.4-.2l9.9,2.8c.2.1.2.2.2.3l.8,12.1c0,1.5-1.1,2.1-2.1,1.8-1.5-.4-1.6,1.7-.2,2.1l10,2.9c1.1.3,1.8.4,2.1.5.6,0,1.3-.2,1.4-.8.1-.7-.5-1.2-2.2-1.9h0ZM203,31.1l-7.5-2.1c-.2,0-.2-.3-.1-.4l6.8-10.4c0,0,.4,0,.5,0,.2,0,.4.2.4.3l.2,12.4c0,.2-.2.3-.3.3h0Z"/>
    <path class="cls-1" d="M248.3,76.9c2,1.8,5.2,5.3,7.2,7.1,1.1,1,2.9-.2,5.2-2.6,1.6-1.7,2.1-2.7,1.6-3.2-.2-.2-.7-.3-1.6.2-1.9.8-3.5.7-5-.6l-8.1-7.4c-.4-.3-.4-.9,0-1.4l10.1-11.1c.2-.3.7-.3,1,0l5.9,5.4c2.8,2.5,2.1,3.9,1.5,4.8-.2.3-.5.8,0,1.2,1.5,1.3,5.7-3.2,6.3-3.8,1.3-1.4,1.3-2.3.8-2.8-.2-.2-.6-.3-1-.3-1.3,0-2.9-1.4-10.4-8.2-.3-.2-.3-.7,0-1l7.4-8.1c.2-.2.4-.2.6,0l6.9,6.3c3.9,3.6.7,4.8,1.9,5.9.7.6,1.5.2,2.7-1.1,1.5-1.6,2.4-1.9,3-2.7.5-.6.6-1.2-.1-1.7-5.6-4.2-12.1-10.8-17.3-15.5-.9-.8-2.1-1.7-2.8-1.1-.5.5-.2,1.5,0,2.1.9,1.8.2,3.4-2.4,6.2l-10.4,11.4c-.8.9-2,1.3-2.8,2.2-.2.3-.5.7-.8,1.2-.5,1.5-2,3.2-4.1,4.8-2.2,1.8-3.6,2.4-4.7,2.4-.5,0-.9,0-1.2.4-.4.5-.4,1.2,0,1.6,3.4,3.6,6.5,5.6,10.4,9.2h0Z"/>
    <path class="cls-1" d="M50.7,207.4c.7-.3.9-.5,1.1-.7.6-.5.7-1.1.2-1.7-1.9-2-4.4-4.9-5.9-6.9-2.7-3.4-5.4-7.5-8.6-11-.4-.5-1.4-1.7-2.2-1.1-.6.4-.5,1.5-.2,2.5.2.5.6,2-4.2,5.8l-22,17.4c-.3.3-1.5.9-2,.9-.3,0-.9-.4-.9-.5-.7-.4-1.8-1.4-2.5-.9-.8.7.2,2.3,1.1,3.4l6.8,8.5c.5.7,1.2.7,1.6.4.4-.3.5-1.1-.2-2-.8-1-1.1-2.7,1-4.7.5-.6.7-.7,1-.8.6-.2,1-.5,1.2-.6.4-.3.8-1,.9-1.4.1-.4.5-.7,1-1.1l7.2-5.7c.3-.2.7-.2.9.1l3.9,4.9c3.6,4.5-.1,5.5.8,6.7,1.2,1.5,6.5-2.5,7.2-3,1.5-1.2,1.7-2.1,1.3-2.6-.2-.2-.6-.4-1-.4-1.5.3-4.4-3.6-8.4-8.7-.2-.3-.2-.7.1-1l8.2-6.5c.4-.3,1-.2,1.3.2l1.1,1.4c8.2,10.3,3.1,9.6,4.4,11.3,1,1.3,2.5-.3,3.8-1.3.7-.5,1.2-.8,1.9-1.2Z"/>
    <path class="cls-1" d="M80.9,229c-1.3-1-3.3-2.6-4.2-3.5-1.3-1.3-3-2.4-3.7-1.6-.3.3-.2.9.2,1.4,1.4,1.8,2.1,3,.6,4.9l-8.1,9.6c-3.8,4.5-6,7.5-7.3,7.8-.5.1-1,.8-1.1,1.4,0,.4-.2,1-1.2,2.2-.8,1-2.3,3.1-3.2,3.7-1.9,1.4-4.5-1.6-5.5-.2-.3.5-.2,1.2.5,2.1.8,1.1,2.1,2.3,3.7,3.6,2.4,2,14.6,11.8,15.9,13.4.8,1,.8,1.2,1,1.6.3.4.7.5,1.2.2,1.2-.8,5.2-5.7,6.5-7.6,0,0,.7-1.1.1-1.7-.4-.4-1.1-.4-1.7.1-2.9,2.5-3.8,2.8-6.4,1.6-.6-.2-4.4-3.1-8.2-6.5-1.2-1.1-1.5-3-.5-4.3l20.2-24.1c1-1,2.3-.6,3.4.2.9.6,1.5.8,1.7,0,.4-1.3-1.2-2.6-3.8-4.5h0Z"/>
    <path class="cls-1" d="M135.9,296.5c-1.2-.5-2.4-2.5-2.6-5l-1.3-17.3c-.1-1.6-.1-2.5.2-3.5.9-2.3-.8-2.8-.9-4l-1.2-10.7c-.3-2.3-.8-4-2.1-4.4-1.3-.4-2.7.8-4.1,2.7l-20.8,29c-1.4,2-3.6,3.1-4.8,2.9-1.8-.3-2.6-.2-2.9.5-.2.6.2,1.1.8,1.4.3.1.9.4,2.1.7l10.1,2.8c1.4.4,2.4-1.5.9-1.9-1-.3-1.7-1.4-.8-2.7l6.9-10c0-.1.2-.1.4-.2l9.9,2.7c.2.1.2.2.2.3l.9,12.1c.1,1.5-1,2.1-2.1,1.9-1.5-.4-1.6,1.8-.2,2.1l10.1,2.8c1.1.3,1.8.4,2.1.5.6,0,1.3-.2,1.4-.8.1-.7-.5-1.2-2.2-1.9h0ZM125.6,275l-7.5-2.1c-.2,0-.2-.3-.1-.4l6.6-10.5c0-.1.4-.1.5,0,.2,0,.4.2.4.3l.4,12.4c0,.2-.2.3-.3.3Z"/>
    <path class="cls-1" d="M207.5,250.6c-2.8.3-6.6,1.3-8.5,1.4l-4.4.4c-.9.1-1.8.4-1.7,1.1.1.9,1.4,1.3,1.8,1.4,1.9.4,2.4.6,2.4,1.2,0,.6-.4,1.1-.5,1.7l-6.9,27c0,.2-.2.3-.3.3s-.2,0-.3-.2l-13-24.7c-.3-.6-.9-1-.9-1.6,0-.5.4-.9,2.1-1.7.4-.2,1.5-.8,1.4-1.7,0-.7-1-.8-1.9-.7l-4.4.6c-1.8.3-5.8.2-8.6.6-.7,0-1.9.4-1.8,1.4,0,.8,1.2,1,1.7,1.1.3,0,.6,0,.9,0,1.6,0,3.1.8,4,2.1l4.4,7.5c.4.6.5,1.3.5,2.1v.9c.1,1.5,1.2,2.2,1.3,2.3,1.1-.1,8.6,14.9,9.7,17.3,1.5,3.1,3.2,5.8,6.2,5.5,3-.4,4.1-3.4,4.8-6.8l8.5-33.1c.5-1.5,1.9-2.6,3.4-3,.4-.1.6-.1.9-.2.5-.2,1.5-.7,1.4-1.5-.1-1-1.4-1-2.1-.9h0Z"/>
    <path class="cls-1" d="M151.5.1c-2.8.7-6.4,2-8.3,2.4l-4.4.9c-.9.2-1.8.6-1.6,1.3.2.9,1.5,1.1,1.9,1.1,1.9.2,2.4.4,2.6.9.1.6-.2,1.1-.3,1.8l-3.8,27.6c0,.2-.1.3-.2.3s-.2,0-.4-.2l-15.7-23.1c-.4-.6-1-.8-1.1-1.5-.1-.5.3-.9,1.9-2,.3-.2,1.4-1,1.2-1.9-.2-.7-1.1-.7-2-.5l-4.3,1.1c-1.8.5-5.7.9-8.5,1.5-.7.2-1.9.6-1.7,1.6.2.8,1.3.9,1.8.9.3,0,.6,0,.9,0,1.6-.1,3.2.4,4.2,1.7l5.2,7c.5.6.6,1.2.7,2.1v.9c.4,1.5,1.6,2.1,1.7,2.2,1.1-.2,10.2,13.8,11.6,16.1,1.8,2.9,3.9,5.4,6.8,4.8,2.9-.7,3.7-3.8,4-7.3l4.7-33.8c.3-1.6,1.6-2.8,3-3.4.4-.1.6-.2.9-.3.4-.2,1.4-.8,1.2-1.6-.2-1-1.5-.9-2.2-.7h0Z"/>
    <path class="cls-1" d="M263.3,268.2c-2.8,1.5-5.8-2.9-8.7-7.4l-13.4-20.5c-.8-1.7,0-2.5,1.1-3.6.6-.6.8-1.4.5-1.8-.5-.8-2.2.5-3.6,1.4l-4.5,2.9c-1.9,1.2-5.9,2.7-5,4.1.4.7,1.6.5,3.5,0,.9-.3,1.9-.3,2.5.7l1.7,2.6c1.2,1.9,1.8,2.9,1.9,3.8,0,1.5,1.7,1.8,2.4,2.8l11.6,17.7c.9,1.5.6,2.6-.5,3.8-.5.5-1,1.2-.5,1.9.3.5.9.5,1.2.4,1.6-.4,8.7-5.5,11-7,.7-.5.9-1.2.6-1.7-.3-.5-1.1-.4-1.7,0h0Z"/>
    <path class="cls-1" d="M308.3,193c-.7-.2-1.3.4-2.1,2-.5,1.1-2.7,2.2-5.2,2.1l-35.7-.3c-2.3,0-4.1.4-4.5,1.7-.5,1.3.5,2.7,2.3,4.3l26.8,23.5c1.9,1.6,2.8,3.8,2.5,5-.5,1.8-.5,2.6.2,2.9.6.3,1.2,0,1.5-.6.2-.3.5-.9.9-2l3.7-9.8c.5-1.3-1.3-2.5-1.8-1.1-.4,1-1.6,1.5-2.7.5l-9.2-7.9c0-.1-.1-.2-.1-.4l3.6-9.6c.1-.1.2-.2.3-.2l12.1.2c1.5,0,2,1.2,1.7,2.2-.5,1.4,1.6,1.7,2.1.4l3.7-9.8c.4-1.1.6-1.8.6-2.1.1-.6-.1-1.3-.7-1.5h0ZM283.8,203.2l-2.8,7.3c0,.2-.3.2-.4.1l-9.8-7.6c0-.1,0-.4,0-.5,0-.2.2-.4.4-.4l12.4.8c.2,0,.3.2.3.4h0Z"/>
    <path class="cls-1" d="M314.6,136.1c-2.3-.2-3.5-.1-3.5.6,0,.3.2.7,1.1,1.2,1.8,1.1,2.7,2.4,2.5,4.4l-1.1,10.9c0,.5-.5.9-1.1.8l-14.9-1.6c-.4,0-.6-.4-.6-.8l.8-8c.4-3.8,1.9-4,3-4.1.4,0,.9,0,1-.6.2-2-5.9-2.7-6.8-2.8-1.9-.2-2.6.3-2.7,1,0,.3.1.7.4,1,.8,1,.6,3.2-.5,13.2,0,.4-.4.6-.8.6l-10.9-1.1c-.2,0-.4-.2-.4-.4l1-9.3c.6-5.3,3.5-3.4,3.6-5.1.1-.9-.7-1.3-2.5-1.5-2.1-.2-3-.8-4-.9-.8,0-1.3.2-1.3,1.1,0,7-1.5,16.1-2.2,23.1-.1,1.2-.2,2.7.8,2.9.7.1,1.3-.7,1.6-1.3.9-1.8,2.6-2.1,6.4-1.8l15.3,1.6c1.2.1,2.2.8,3.4.9.4,0,.9,0,1.4-.1,1.5-.5,3.8-.2,6.3.4,2.8.7,4.1,1.5,4.7,2.4.3.5.6.7,1,.7.6,0,1.2-.4,1.3-1,.9-4.8.7-8.6,1.3-13.9.3-2.6,1.2-7.3,1.5-10,.2-1.5-1.9-2.2-5.2-2.6h0Z"/>
    <path class="cls-1" d="M295.9,98.6c2.4,1.9,5.6,1.9,7.3-.2,1.7-2,1.1-5.3-1.3-7.2s-5.6-1.9-7.3.2-1.1,5.3,1.3,7.2Z"/>
    <path class="cls-1" d="M8.3,162c2.3-2,2.9-5.2,1.2-7.2s-5-2.1-7.3,0c-2.3,2-2.9,5.2-1.2,7.2,1.7,2,5,2.1,7.3,0Z"/>
  </g>
</svg>